# body
v 0.14 0.8 -0.01
v 0.12934313455158017 0.8 -0.048268343236508984
v 0.09899494936611666 0.8 -0.08071067811865475
v 0.053575680531112585 0.8 -0.10238795325112868
v 8.572527594031473e-18 0.8 -0.11
v -0.053575680531112564 0.8 -0.10238795325112868
v -0.09899494936611665 0.8 -0.08071067811865476
v -0.12934313455158017 0.8 -0.04826834323650899
v -0.14 0.8 -0.010000000000000012
v -0.12934313455158017 0.8 0.04826834323650897
v -0.09899494936611669 0.8 0.08071067811865475
v -0.053575680531112654 0.8 0.10238795325112865
v -2.571758278209442e-17 0.8 0.11
v 0.053575680531112606 0.8 0.10238795325112866
v 0.09899494936611664 0.8 0.08071067811865476
v 0.1293431345515801 0.8 0.04826834323650905
v 0.16 0.92 -0.02
v 0.1478207252018059 0.92 -0.06209517756015988
v 0.11313708498984762 0.92 -0.09778174593052022
v 0.061229349178414376 0.92 -0.12162674857624155
v 9.797174393178826e-18 0.92 -0.13
v -0.061229349178414355 0.92 -0.12162674857624155
v -0.11313708498984759 0.92 -0.09778174593052023
v -0.1478207252018059 0.92 -0.06209517756015989
v -0.16 0.92 -0.020000000000000014
v -0.1478207252018059 0.92 0.062095177560159864
v -0.11313708498984763 0.92 0.09778174593052022
v -0.06122934917841445 0.92 0.12162674857624152
v -2.9391523179536474e-17 0.92 0.13
v 0.061229349178414404 0.92 0.12162674857624153
v 0.11313708498984758 0.92 0.09778174593052025
v 0.14782072520180584 0.92 0.06209517756015995
v 0.12 1.04 -0.01
v 0.1108655439013544 1.04 -0.04444150891285808
v 0.08485281374238571 1.04 -0.07363961030678927
v 0.04592201188381078 1.04 -0.0931491579260158
v 7.347880794884118e-18 1.04 -0.09999999999999999
v -0.045922011883810766 1.04 -0.0931491579260158
v -0.0848528137423857 1.04 -0.07363961030678927
v -0.1108655439013544 1.04 -0.04444150891285809
v -0.12 1.04 -0.01000000000000001
v -0.11086554390135442 1.04 0.04444150891285807
v -0.08485281374238572 1.04 0.07363961030678927
v -0.045922011883810836 1.04 0.09314915792601577
v -2.2043642384652355e-17 1.04 0.09999999999999999
v 0.0459220118838108 1.04 0.09314915792601579
v 0.08485281374238568 1.04 0.07363961030678928
v 0.11086554390135438 1.04 0.044441508912858134
v 0.17 1.16 -0.03
v 0.15705952052691877 1.16 -0.07974884620746167
v 0.1202081528017131 1.16 -0.12192388155425117
v 0.06505618350206528 1.16 -0.15010433922646726
v 1.0409497792752502e-17 1.16 -0.16
v -0.06505618350206525 1.16 -0.15010433922646726
v -0.12020815280171308 1.16 -0.12192388155425118
v -0.15705952052691877 1.16 -0.07974884620746168
v -0.17 1.16 -0.030000000000000016
v -0.15705952052691877 1.16 0.062095177560159864
v -0.12020815280171311 1.16 0.09778174593052022
v -0.06505618350206537 1.16 0.12162674857624152
v -3.1228493378257505e-17 1.16 0.13
v 0.06505618350206531 1.16 0.12162674857624153
v 0.12020815280171306 1.16 0.09778174593052025
v 0.1570595205269187 1.16 0.06209517756015995
v 0.2 1.28 -0.02
v 0.18477590650225736 1.28 -0.06209517756015988
v 0.14142135623730953 1.28 -0.09778174593052022
v 0.07653668647301798 1.28 -0.12162674857624155
v 1.2246467991473533e-17 1.28 -0.13
v -0.07653668647301795 1.28 -0.12162674857624155
v -0.1414213562373095 1.28 -0.09778174593052023
v -0.18477590650225736 1.28 -0.06209517756015989
v -0.2 1.28 -0.020000000000000014
v -0.1847759065022574 1.28 0.05709517756015987
v -0.14142135623730953 1.28 0.09278174593052022
v -0.07653668647301808 1.28 0.11662674857624152
v -3.6739403974420595e-17 1.28 0.125
v 0.076536686473018 1.28 0.11662674857624153
v 0.14142135623730948 1.28 0.09278174593052024
v 0.1847759065022573 1.28 0.05709517756015994
v 0.06 1.36 -0.005
v 0.0554327719506772 1.36 -0.026047588780079938
v 0.042426406871192854 1.36 -0.043890872965260105
v 0.02296100594190539 1.36 -0.05581337428812077
v 3.673940397442059e-18 1.36 -0.06
v -0.022961005941905383 1.36 -0.05581337428812077
v -0.04242640687119285 1.36 -0.04389087296526011
v -0.0554327719506772 1.36 -0.026047588780079945
v -0.06 1.36 -0.005000000000000007
v -0.05543277195067721 1.36 0.027047588780079936
v -0.04242640687119286 1.36 0.044890872965260106
v -0.022961005941905418 1.36 0.056813374288120756
v -1.1021821192326178e-17 1.36 0.061
v 0.0229610059419054 1.36 0.05681337428812076
v 0.04242640687119284 1.36 0.04489087296526012
v 0.05543277195067719 1.36 0.02704758878007997
v 0.095 1.44 -0.01
v 0.08776855558857224 1.44 -0.048268343236508984
v 0.06717514421272203 1.44 -0.08071067811865475
v 0.03635492607468353 1.44 -0.10238795325112868
v 5.817072295949928e-18 1.44 -0.11
v -0.036354926074683526 1.44 -0.10238795325112868
v -0.06717514421272201 1.44 -0.08071067811865476
v -0.08776855558857224 1.44 -0.04826834323650899
v -0.095 1.44 -0.010000000000000012
v -0.08776855558857226 1.44 0.05709517756015987
v -0.06717514421272203 1.44 0.09278174593052022
v -0.03635492607468358 1.44 0.11662674857624152
v -1.745121688784978e-17 1.44 0.125
v 0.036354926074683554 1.44 0.11662674857624153
v 0.067175144212722 1.44 0.09278174593052024
v 0.08776855558857222 1.44 0.05709517756015994
v 0.09 1.52 -0.01
v 0.08314915792601581 1.52 -0.046354926074683535
v 0.06363961030678927 1.52 -0.07717514421272201
v 0.03444150891285808 1.52 -0.09776855558857224
v 5.5109105961630896e-18 1.52 -0.105
v -0.034441508912858076 1.52 -0.09776855558857224
v -0.06363961030678927 1.52 -0.07717514421272202
v -0.08314915792601581 1.52 -0.04635492607468354
v -0.09 1.52 -0.010000000000000012
v -0.08314915792601581 1.52 0.05326834323650897
v -0.06363961030678929 1.52 0.08571067811865475
v -0.03444150891285813 1.52 0.10738795325112865
v -1.6532731788489266e-17 1.52 0.115
v 0.0344415089128581 1.52 0.10738795325112867
v 0.06363961030678926 1.52 0.08571067811865477
v 0.08314915792601578 1.52 0.053268343236509044
v 0.05 1.6000000000000003 0
v 0.04619397662556434 1.6000000000000003 -0.022961005941905387
v 0.03535533905932738 1.6000000000000003 -0.04242640687119285
v 0.019134171618254495 1.6000000000000003 -0.0554327719506772
v 3.061616997868383e-18 1.6000000000000003 -0.06
v -0.019134171618254488 1.6000000000000003 -0.0554327719506772
v -0.035355339059327376 1.6000000000000003 -0.042426406871192854
v -0.04619397662556434 1.6000000000000003 -0.022961005941905394
v -0.05 1.6000000000000003 -7.347880794884118e-18
v -0.04619397662556435 1.6000000000000003 0.03896100594190538
v -0.03535533905932738 1.6000000000000003 0.05842640687119285
v -0.01913417161825452 1.6000000000000003 0.07143277195067718
v -9.184850993605149e-18 1.6000000000000003 0.076
v 0.0191341716182545 1.6000000000000003 0.0714327719506772
v 0.03535533905932737 1.6000000000000003 0.05842640687119286
v 0.04619397662556433 1.6000000000000003 0.03896100594190542
v 0 0.8 0
v -2.6020852139652106e-18 1.6000000000000005 0.006999999999999998
v 0.17611382523250452 0.9736 0.02753883017825714
v 0.1695370168414797 0.9736 0.002740943760999325
v 0.20279668001188605 1.0599999999999998 -0.022680339091115262
v 0.22275247791412983 1.1463999999999999 -0.009969697665057967
v 0.23371382523250453 1.1463999999999999 0.02033883017825714
v 0.2227524779141298 1.1463999999999999 0.0758473580215723
v 0.202796680011886 1.0599999999999998 0.0794473580215723
v 0.16953701684147968 0.9736 0.066736716595515
v 0.18509485436042042 0.8879999999999999 0.027949025148547618
v 0.17961418070123306 0.8879999999999999 0.00728411980083277
v 0.20733056667657168 0.9599999999999999 -0.01390028257592938
v 0.22396039826177483 1.0319999999999998 -0.0033080813875483103
v 0.23309485436042043 1.0319999999999998 0.021949025148547616
v 0.2239603982617748 1.0319999999999998 0.06820613168464358
v 0.20733056667657165 0.9599999999999999 0.07120613168464358
v 0.17961418070123306 0.8879999999999999 0.0606139304962625
v 0.18708536892437838 0.7551999999999999 0.033154122633692856
v 0.18215276263110974 0.7551999999999999 0.014555707820749497
v 0.20709751000891452 0.8199999999999998 -0.004510254318336446
v 0.22206435843559735 0.8847999999999999 0.005022726751206526
v 0.2302853689243784 0.8847999999999999 0.027754122633692858
v 0.22206435843559733 0.8847999999999999 0.06938551851617923
v 0.2070975100089145 0.8199999999999998 0.07208551851617923
v 0.18215276263110974 0.7551999999999999 0.06255253744663625
v 0.19040289319764164 0.6871999999999999 0.03849595177560158
v 0.18638373251423757 0.6871999999999999 0.023341687853944033
v 0.2067090822294859 0.7399999999999999 0.007806459444318452
v 0.21890429205863488 0.7928 0.015574073649131243
v 0.22560289319764165 0.7928 0.03409595177560159
v 0.21890429205863485 0.7928 0.06801782990207196
v 0.20670908222948586 0.7399999999999999 0.07021782990207197
v 0.18638373251423757 0.6871999999999999 0.06245021569725917
v 0.18443134950576776 0.5956 0.05788065932016587
v 0.1787679867246075 0.5956 0.036526923794193866
v 0.2074082522324574 0.6699999999999999 0.014636374671539637
v 0.22459241153716733 0.7444 0.025581649232866745
v 0.23403134950576776 0.7444 0.05168065932016587
v 0.2245924115371673 0.7444 0.09947966940746503
v 0.20740825223245737 0.6699999999999999 0.10257966940746505
v 0.17876798672460747 0.5956 0.09163439484613792
v 0.205 0.6699999999999999 0.06
v -0.16953701684147968 0.9736 0.0027409437609993426
v -0.17611382523250452 0.9736 0.027538830178257163
v -0.1695370168414797 0.9736 0.06673671659551497
v -0.20279668001188603 1.0599999999999998 0.07944735802157227
v -0.22275247791412983 1.1463999999999999 0.07584735802157228
v -0.2337138252325045 1.1463999999999999 0.02033883017825716
v -0.2227524779141298 1.1463999999999999 -0.009969697665057946
v -0.20279668001188603 1.0599999999999998 -0.02268033909111524
v -0.17961418070123306 0.8879999999999999 0.007284119800832784
v -0.1850948543604204 0.8879999999999999 0.027949025148547635
v -0.17961418070123306 0.8879999999999999 0.060613930496262486
v -0.20733056667657165 0.9599999999999999 0.07120613168464357
v -0.22396039826177483 1.0319999999999998 0.06820613168464357
v -0.2330948543604204 1.0319999999999998 0.021949025148547633
v -0.22396039826177483 1.0319999999999998 -0.0033080813875482895
v -0.20733056667657165 0.9599999999999999 -0.013900282575929367
v -0.18215276263110974 0.7551999999999999 0.014555707820749508
v -0.18708536892437835 0.7551999999999999 0.03315412263369288
v -0.18215276263110974 0.7551999999999999 0.06255253744663625
v -0.2070975100089145 0.8199999999999998 0.07208551851617921
v -0.22206435843559735 0.8847999999999999 0.06938551851617922
v -0.23028536892437837 0.8847999999999999 0.027754122633692875
v -0.22206435843559735 0.8847999999999999 0.00502272675120654
v -0.2070975100089145 0.8199999999999998 -0.004510254318336432
v -0.18638373251423757 0.6871999999999999 0.023341687853944044
v -0.19040289319764162 0.6871999999999999 0.0384959517756016
v -0.18638373251423757 0.6871999999999999 0.06245021569725916
v -0.2067090822294859 0.7399999999999999 0.07021782990207195
v -0.21890429205863488 0.7928 0.06801782990207195
v -0.22560289319764162 0.7928 0.034095951775601596
v -0.21890429205863488 0.7928 0.015574073649131253
v -0.2067090822294859 0.7399999999999999 0.007806459444318466
v -0.17876798672460747 0.5956 0.03652692379419388
v -0.18443134950576776 0.5956 0.05788065932016589
v -0.1787679867246075 0.5956 0.0916343948461379
v -0.20740825223245737 0.6699999999999999 0.10257966940746502
v -0.22459241153716733 0.7444 0.09947966940746501
v -0.23403134950576776 0.7444 0.051680659320165884
v -0.2245924115371673 0.7444 0.025581649232866766
v -0.20740825223245737 0.6699999999999999 0.014636374671539651
v -0.205 0.6699999999999999 0.06
v 0.09785084207398423 0.5660000000000001 0.015499999999999979
v 0.08825966317040637 0.5660000000000001 -0.018941508912858108
v 0.10488949475560952 0.674 -0.031385659804143914
v 0.11585084207398422 0.674 0.006499999999999978
v 0.10488949475560946 0.674 0.08038565980414393
v 0.08825966317040632 0.5660000000000001 0.06794150891285812
v 0.09828067365918738 0.41680000000000006 0.006399999999999984
v 0.09060773053632509 0.41680000000000006 -0.021153207130286483
v 0.10391159580448761 0.5032000000000001 -0.031108527843315123
v 0.11268067365918738 0.5032000000000001 -0.000800000000000016
v 0.10391159580448757 0.5032000000000001 0.058308527843315146
v 0.09060773053632505 0.41680000000000006 0.0483532071302865
v 0.09851946898430025 0.26280000000000003 0.006899999999999986
v 0.09191221240627995 0.26280000000000003 -0.016826372806635584
v 0.10336831860941989 0.3372 -0.02539901008729914
v 0.11091946898430025 0.3372 0.0006999999999999854
v 0.10336831860941986 0.3372 0.051599010087299155
v 0.0919122124062799 0.26280000000000003 0.0430263728066356
v 0.09871050524439054 0.09760000000000003 -0.0027000000000000123
v 0.09295579790224381 0.09760000000000003 -0.023364905347714866
v 0.10293369685336572 0.16240000000000004 -0.03083139588248635
v 0.10951050524439053 0.16240000000000004 -0.008100000000000013
v 0.10293369685336569 0.16240000000000004 0.03623139588248636
v 0.09295579790224379 0.09760000000000003 0.028764905347714875
v 0.09832843272420995 0.008000000000000049 0.046499999999999986
v 0.09086862691031607 0.008000000000000049 0.0197121597344437
v 0.10380294036547406 0.09200000000000004 0.010033375707888072
v 0.11232843272420995 0.09200000000000004 0.039499999999999987
v 0.10380294036547404 0.09200000000000004 0.09696662429211195
v 0.09086862691031602 0.008000000000000049 0.08728784026555632
v 0.10000000000000002 0.050000000000000044 0.049999999999999996
v -0.08825966317040632 0.5660000000000001 -0.01894150891285808
v -0.09785084207398417 0.5660000000000001 0.015500000000000002
v -0.08825966317040632 0.5660000000000001 0.06794150891285808
v -0.10488949475560946 0.674 0.0803856598041439
v -0.11585084207398416 0.674 0.006500000000000001
v -0.10488949475560946 0.674 -0.03138565980414389
v -0.09060773053632505 0.41680000000000006 -0.021153207130286462
v -0.09828067365918734 0.41680000000000006 0.006400000000000001
v -0.09060773053632505 0.41680000000000006 0.048353207130286464
v -0.10391159580448757 0.5032000000000001 0.05830852784331512
v -0.11268067365918734 0.5032000000000001 -0.0007999999999999986
v -0.10391159580448757 0.5032000000000001 -0.03110852784331511
v -0.0919122124062799 0.26280000000000003 -0.01682637280663557
v -0.09851946898430021 0.26280000000000003 0.006900000000000002
v -0.0919122124062799 0.26280000000000003 0.04302637280663557
v -0.10336831860941986 0.3372 0.05159901008729913
v -0.1109194689843002 0.3372 0.000700000000000001
v -0.10336831860941986 0.3372 -0.025399010087299126
v -0.09295579790224379 0.09760000000000003 -0.023364905347714852
v -0.09871050524439051 0.09760000000000003 -0.0026999999999999993
v -0.09295579790224379 0.09760000000000003 0.028764905347714854
v -0.10293369685336569 0.16240000000000004 0.03623139588248634
v -0.1095105052443905 0.16240000000000004 -0.0081
v -0.10293369685336569 0.16240000000000004 -0.03083139588248634
v -0.09086862691031602 0.008000000000000049 0.019712159734443718
v -0.09832843272420992 0.008000000000000049 0.04650000000000001
v -0.09086862691031602 0.008000000000000049 0.08728784026555629
v -0.10380294036547404 0.09200000000000004 0.09696662429211192
v -0.1123284327242099 0.09200000000000004 0.03950000000000001
v -0.10380294036547404 0.09200000000000004 0.010033375707888086
v -0.09999999999999999 0.050000000000000044 0.05000000000000001
f 2 3 19
f 2 19 18
f 3 4 20
f 3 20 19
f 4 5 21
f 4 21 20
f 5 6 22
f 5 22 21
f 6 7 23
f 6 23 22
f 7 8 24
f 7 24 23
f 10 11 27
f 10 27 26
f 11 12 28
f 11 28 27
f 12 13 29
f 12 29 28
f 13 14 30
f 13 30 29
f 14 15 31
f 14 31 30
f 15 16 32
f 15 32 31
f 17 18 34
f 17 34 33
f 18 19 35
f 18 35 34
f 19 20 36
f 19 36 35
f 20 21 37
f 20 37 36
f 21 22 38
f 21 38 37
f 22 23 39
f 22 39 38
f 23 24 40
f 23 40 39
f 24 25 41
f 24 41 40
f 25 26 42
f 25 42 41
f 26 27 43
f 26 43 42
f 27 28 44
f 27 44 43
f 28 29 45
f 28 45 44
f 29 30 46
f 29 46 45
f 30 31 47
f 30 47 46
f 31 32 48
f 31 48 47
f 32 17 33
f 32 33 48
f 34 35 51
f 34 51 50
f 35 36 52
f 35 52 51
f 36 37 53
f 36 53 52
f 37 38 54
f 37 54 53
f 38 39 55
f 38 55 54
f 39 40 56
f 39 56 55
f 42 43 59
f 42 59 58
f 43 44 60
f 43 60 59
f 44 45 61
f 44 61 60
f 45 46 62
f 45 62 61
f 46 47 63
f 46 63 62
f 47 48 64
f 47 64 63
f 50 51 67
f 50 67 66
f 51 52 68
f 51 68 67
f 52 53 69
f 52 69 68
f 53 54 70
f 53 70 69
f 54 55 71
f 54 71 70
f 55 56 72
f 55 72 71
f 58 59 75
f 58 75 74
f 59 60 76
f 59 76 75
f 60 61 77
f 60 77 76
f 61 62 78
f 61 78 77
f 62 63 79
f 62 79 78
f 63 64 80
f 63 80 79
f 65 66 82
f 65 82 81
f 66 67 83
f 66 83 82
f 67 68 84
f 67 84 83
f 68 69 85
f 68 85 84
f 69 70 86
f 69 86 85
f 70 71 87
f 70 87 86
f 71 72 88
f 71 88 87
f 72 73 89
f 72 89 88
f 73 74 90
f 73 90 89
f 74 75 91
f 74 91 90
f 75 76 92
f 75 92 91
f 76 77 93
f 76 93 92
f 77 78 94
f 77 94 93
f 78 79 95
f 78 95 94
f 79 80 96
f 79 96 95
f 80 65 81
f 80 81 96
f 81 82 98
f 81 98 97
f 82 83 99
f 82 99 98
f 83 84 100
f 83 100 99
f 84 85 101
f 84 101 100
f 85 86 102
f 85 102 101
f 86 87 103
f 86 103 102
f 87 88 104
f 87 104 103
f 88 89 105
f 88 105 104
f 89 90 106
f 89 106 105
f 90 91 107
f 90 107 106
f 91 92 108
f 91 108 107
f 92 93 109
f 92 109 108
f 93 94 110
f 93 110 109
f 94 95 111
f 94 111 110
f 95 96 112
f 95 112 111
f 96 81 97
f 96 97 112
f 97 98 114
f 97 114 113
f 98 99 115
f 98 115 114
f 99 100 116
f 99 116 115
f 100 101 117
f 100 117 116
f 101 102 118
f 101 118 117
f 102 103 119
f 102 119 118
f 103 104 120
f 103 120 119
f 104 105 121
f 104 121 120
f 105 106 122
f 105 122 121
f 106 107 123
f 106 123 122
f 107 108 124
f 107 124 123
f 108 109 125
f 108 125 124
f 109 110 126
f 109 126 125
f 110 111 127
f 110 127 126
f 111 112 128
f 111 128 127
f 112 97 113
f 112 113 128
f 113 114 130
f 113 130 129
f 114 115 131
f 114 131 130
f 115 116 132
f 115 132 131
f 116 117 133
f 116 133 132
f 117 118 134
f 117 134 133
f 118 119 135
f 118 135 134
f 119 120 136
f 119 136 135
f 120 121 137
f 120 137 136
f 121 122 138
f 121 138 137
f 122 123 139
f 122 139 138
f 123 124 140
f 123 140 139
f 124 125 141
f 124 141 140
f 125 126 142
f 125 142 141
f 126 127 143
f 126 143 142
f 127 128 144
f 127 144 143
f 128 113 129
f 128 129 144
f 145 2 1
f 145 3 2
f 145 4 3
f 145 5 4
f 145 6 5
f 145 7 6
f 145 8 7
f 145 9 8
f 145 10 9
f 145 11 10
f 145 12 11
f 145 13 12
f 145 14 13
f 145 15 14
f 145 16 15
f 145 1 16
f 146 129 130
f 146 130 131
f 146 131 132
f 146 132 133
f 146 133 134
f 146 134 135
f 146 135 136
f 146 136 137
f 146 137 138
f 146 138 139
f 146 139 140
f 146 140 141
f 146 141 142
f 146 142 143
f 146 143 144
f 146 144 129
f 33 34 148
f 33 148 147
f 34 50 149
f 34 149 148
f 50 66 150
f 50 150 149
f 66 65 151
f 66 151 150
f 65 80 152
f 65 152 151
f 80 64 153
f 80 153 152
f 64 48 154
f 64 154 153
f 48 33 147
f 48 147 154
f 147 148 156
f 147 156 155
f 148 149 157
f 148 157 156
f 149 150 158
f 149 158 157
f 150 151 159
f 150 159 158
f 151 152 160
f 151 160 159
f 152 153 161
f 152 161 160
f 153 154 162
f 153 162 161
f 154 147 155
f 154 155 162
f 155 156 164
f 155 164 163
f 156 157 165
f 156 165 164
f 157 158 166
f 157 166 165
f 158 159 167
f 158 167 166
f 159 160 168
f 159 168 167
f 160 161 169
f 160 169 168
f 161 162 170
f 161 170 169
f 162 155 163
f 162 163 170
f 163 164 172
f 163 172 171
f 164 165 173
f 164 173 172
f 165 166 174
f 165 174 173
f 166 167 175
f 166 175 174
f 167 168 176
f 167 176 175
f 168 169 177
f 168 177 176
f 169 170 178
f 169 178 177
f 170 163 171
f 170 171 178
f 171 172 180
f 171 180 179
f 172 173 181
f 172 181 180
f 173 174 182
f 173 182 181
f 174 175 183
f 174 183 182
f 175 176 184
f 175 184 183
f 176 177 185
f 176 185 184
f 177 178 186
f 177 186 185
f 178 171 179
f 178 179 186
f 187 179 180
f 187 180 181
f 187 181 182
f 187 182 183
f 187 183 184
f 187 184 185
f 187 185 186
f 187 186 179
f 40 41 189
f 40 189 188
f 41 42 190
f 41 190 189
f 42 58 191
f 42 191 190
f 58 74 192
f 58 192 191
f 74 73 193
f 74 193 192
f 73 72 194
f 73 194 193
f 72 56 195
f 72 195 194
f 56 40 188
f 56 188 195
f 188 189 197
f 188 197 196
f 189 190 198
f 189 198 197
f 190 191 199
f 190 199 198
f 191 192 200
f 191 200 199
f 192 193 201
f 192 201 200
f 193 194 202
f 193 202 201
f 194 195 203
f 194 203 202
f 195 188 196
f 195 196 203
f 196 197 205
f 196 205 204
f 197 198 206
f 197 206 205
f 198 199 207
f 198 207 206
f 199 200 208
f 199 208 207
f 200 201 209
f 200 209 208
f 201 202 210
f 201 210 209
f 202 203 211
f 202 211 210
f 203 196 204
f 203 204 211
f 204 205 213
f 204 213 212
f 205 206 214
f 205 214 213
f 206 207 215
f 206 215 214
f 207 208 216
f 207 216 215
f 208 209 217
f 208 217 216
f 209 210 218
f 209 218 217
f 210 211 219
f 210 219 218
f 211 204 212
f 211 212 219
f 212 213 221
f 212 221 220
f 213 214 222
f 213 222 221
f 214 215 223
f 214 223 222
f 215 216 224
f 215 224 223
f 216 217 225
f 216 225 224
f 217 218 226
f 217 226 225
f 218 219 227
f 218 227 226
f 219 212 220
f 219 220 227
f 228 220 221
f 228 221 222
f 228 222 223
f 228 223 224
f 228 224 225
f 228 225 226
f 228 226 227
f 228 227 220
f 1 2 230
f 1 230 229
f 2 18 231
f 2 231 230
f 18 17 232
f 18 232 231
f 17 32 233
f 17 233 232
f 32 16 234
f 32 234 233
f 16 1 229
f 16 229 234
f 229 230 236
f 229 236 235
f 230 231 237
f 230 237 236
f 231 232 238
f 231 238 237
f 232 233 239
f 232 239 238
f 233 234 240
f 233 240 239
f 234 229 235
f 234 235 240
f 235 236 242
f 235 242 241
f 236 237 243
f 236 243 242
f 237 238 244
f 237 244 243
f 238 239 245
f 238 245 244
f 239 240 246
f 239 246 245
f 240 235 241
f 240 241 246
f 241 242 248
f 241 248 247
f 242 243 249
f 242 249 248
f 243 244 250
f 243 250 249
f 244 245 251
f 244 251 250
f 245 246 252
f 245 252 251
f 246 241 247
f 246 247 252
f 247 248 254
f 247 254 253
f 248 249 255
f 248 255 254
f 249 250 256
f 249 256 255
f 250 251 257
f 250 257 256
f 251 252 258
f 251 258 257
f 252 247 253
f 252 253 258
f 259 253 254
f 259 254 255
f 259 255 256
f 259 256 257
f 259 257 258
f 259 258 253
f 8 9 261
f 8 261 260
f 9 10 262
f 9 262 261
f 10 26 263
f 10 263 262
f 26 25 264
f 26 264 263
f 25 24 265
f 25 265 264
f 24 8 260
f 24 260 265
f 260 261 267
f 260 267 266
f 261 262 268
f 261 268 267
f 262 263 269
f 262 269 268
f 263 264 270
f 263 270 269
f 264 265 271
f 264 271 270
f 265 260 266
f 265 266 271
f 266 267 273
f 266 273 272
f 267 268 274
f 267 274 273
f 268 269 275
f 268 275 274
f 269 270 276
f 269 276 275
f 270 271 277
f 270 277 276
f 271 266 272
f 271 272 277
f 272 273 279
f 272 279 278
f 273 274 280
f 273 280 279
f 274 275 281
f 274 281 280
f 275 276 282
f 275 282 281
f 276 277 283
f 276 283 282
f 277 272 278
f 277 278 283
f 278 279 285
f 278 285 284
f 279 280 286
f 279 286 285
f 280 281 287
f 280 287 286
f 281 282 288
f 281 288 287
f 282 283 289
f 282 289 288
f 283 278 284
f 283 284 289
f 290 284 285
f 290 285 286
f 290 286 287
f 290 287 288
f 290 288 289
f 290 289 284
