# body
v 0.14 0.8 -0.01
v 0.12934313455158017 0.8 -0.048268343236508984
v 0.09899494936611666 0.8 -0.08071067811865475
v 0.053575680531112585 0.8 -0.10238795325112868
v 8.572527594031473e-18 0.8 -0.11
v -0.053575680531112564 0.8 -0.10238795325112868
v -0.09899494936611665 0.8 -0.08071067811865476
v -0.12934313455158017 0.8 -0.04826834323650899
v -0.14 0.8 -0.010000000000000012
v -0.12934313455158017 0.8 0.04826834323650897
v -0.09899494936611669 0.8 0.08071067811865475
v -0.053575680531112654 0.8 0.10238795325112865
v -2.571758278209442e-17 0.8 0.11
v 0.053575680531112606 0.8 0.10238795325112866
v 0.09899494936611664 0.8 0.08071067811865476
v 0.1293431345515801 0.8 0.04826834323650905
v 0.16 0.92 -0.02
v 0.1478207252018059 0.92 -0.06209517756015988
v 0.11313708498984762 0.92 -0.09778174593052022
v 0.061229349178414376 0.92 -0.12162674857624155
v 9.797174393178826e-18 0.92 -0.13
v -0.061229349178414355 0.92 -0.12162674857624155
v -0.11313708498984759 0.92 -0.09778174593052023
v -0.1478207252018059 0.92 -0.06209517756015989
v -0.16 0.92 -0.020000000000000014
v -0.1478207252018059 0.92 0.062095177560159864
v -0.11313708498984763 0.92 0.09778174593052022
v -0.06122934917841445 0.92 0.12162674857624152
v -2.9391523179536474e-17 0.92 0.13
v 0.061229349178414404 0.92 0.12162674857624153
v 0.11313708498984758 0.92 0.09778174593052025
v 0.14782072520180584 0.92 0.06209517756015995
v 0.12 1.04 -0.01
v 0.1108655439013544 1.04 -0.04444150891285808
v 0.08485281374238571 1.04 -0.07363961030678927
v 0.04592201188381078 1.04 -0.0931491579260158
v 7.347880794884118e-18 1.04 -0.09999999999999999
v -0.045922011883810766 1.04 -0.0931491579260158
v -0.0848528137423857 1.04 -0.07363961030678927
v -0.1108655439013544 1.04 -0.04444150891285809
v -0.12 1.04 -0.01000000000000001
v -0.11086554390135442 1.04 0.04444150891285807
v -0.08485281374238572 1.04 0.07363961030678927
v -0.045922011883810836 1.04 0.09314915792601577
v -2.2043642384652355e-17 1.04 0.09999999999999999
v 0.0459220118838108 1.04 0.09314915792601579
v 0.08485281374238568 1.04 0.07363961030678928
v 0.11086554390135438 1.04 0.044441508912858134
v 0.17 1.16 -0.03
v 0.15705952052691877 1.16 -0.07974884620746167
v 0.1202081528017131 1.16 -0.12192388155425117
v 0.06505618350206528 1.16 -0.15010433922646726
v 1.0409497792752502e-17 1.16 -0.16
v -0.06505618350206525 1.16 -0.15010433922646726
v -0.12020815280171308 1.16 -0.12192388155425118
v -0.15705952052691877 1.16 -0.07974884620746168
v -0.17 1.16 -0.030000000000000016
v -0.15705952052691877 1.16 0.062095177560159864
v -0.12020815280171311 1.16 0.09778174593052022
v -0.06505618350206537 1.16 0.12162674857624152
v -3.1228493378257505e-17 1.16 0.13
v 0.06505618350206531 1.16 0.12162674857624153
v 0.12020815280171306 1.16 0.09778174593052025
v 0.1570595205269187 1.16 0.06209517756015995
v 0.2 1.28 -0.02
v 0.18477590650225736 1.28 -0.06209517756015988
v 0.14142135623730953 1.28 -0.09778174593052022
v 0.07653668647301798 1.28 -0.12162674857624155
v 1.2246467991473533e-17 1.28 -0.13
v -0.07653668647301795 1.28 -0.12162674857624155
v -0.1414213562373095 1.28 -0.09778174593052023
v -0.18477590650225736 1.28 -0.06209517756015989
v -0.2 1.28 -0.020000000000000014
v -0.1847759065022574 1.28 0.05709517756015987
v -0.14142135623730953 1.28 0.09278174593052022
v -0.07653668647301808 1.28 0.11662674857624152
v -3.6739403974420595e-17 1.28 0.125
v 0.076536686473018 1.28 0.11662674857624153
v 0.14142135623730948 1.28 0.09278174593052024
v 0.1847759065022573 1.28 0.05709517756015994
v 0.06 1.36 -0.005
v 0.0554327719506772 1.36 -0.026047588780079938
v 0.042426406871192854 1.36 -0.043890872965260105
v 0.02296100594190539 1.36 -0.05581337428812077
v 3.673940397442059e-18 1.36 -0.06
v -0.022961005941905383 1.36 -0.05581337428812077
v -0.04242640687119285 1.36 -0.04389087296526011
v -0.0554327719506772 1.36 -0.026047588780079945
v -0.06 1.36 -0.005000000000000007
v -0.05543277195067721 1.36 0.027047588780079936
v -0.04242640687119286 1.36 0.044890872965260106
v -0.022961005941905418 1.36 0.056813374288120756
v -1.1021821192326178e-17 1.36 0.061
v 0.0229610059419054 1.36 0.05681337428812076
v 0.04242640687119284 1.36 0.04489087296526012
v 0.05543277195067719 1.36 0.02704758878007997
v 0.095 1.44 -0.01
v 0.08776855558857224 1.44 -0.048268343236508984
v 0.06717514421272203 1.44 -0.08071067811865475
v 0.03635492607468353 1.44 -0.10238795325112868
v 5.817072295949928e-18 1.44 -0.11
v -0.036354926074683526 1.44 -0.10238795325112868
v -0.06717514421272201 1.44 -0.08071067811865476
v -0.08776855558857224 1.44 -0.04826834323650899
v -0.095 1.44 -0.010000000000000012
v -0.08776855558857226 1.44 0.05709517756015987
v -0.06717514421272203 1.44 0.09278174593052022
v -0.03635492607468358 1.44 0.11662674857624152
v -1.745121688784978e-17 1.44 0.125
v 0.036354926074683554 1.44 0.11662674857624153
v 0.067175144212722 1.44 0.09278174593052024
v 0.08776855558857222 1.44 0.05709517756015994
v 0.09 1.52 -0.01
v 0.08314915792601581 1.52 -0.046354926074683535
v 0.06363961030678927 1.52 -0.07717514421272201
v 0.03444150891285808 1.52 -0.09776855558857224
v 5.5109105961630896e-18 1.52 -0.105
v -0.034441508912858076 1.52 -0.09776855558857224
v -0.06363961030678927 1.52 -0.07717514421272202
v -0.08314915792601581 1.52 -0.04635492607468354
v -0.09 1.52 -0.010000000000000012
v -0.08314915792601581 1.52 0.05326834323650897
v -0.06363961030678929 1.52 0.08571067811865475
v -0.03444150891285813 1.52 0.10738795325112865
v -1.6532731788489266e-17 1.52 0.115
v 0.0344415089128581 1.52 0.10738795325112867
v 0.06363961030678926 1.52 0.08571067811865477
v 0.08314915792601578 1.52 0.053268343236509044
v 0.05 1.6000000000000003 0
v 0.04619397662556434 1.6000000000000003 -0.022961005941905387
v 0.03535533905932738 1.6000000000000003 -0.04242640687119285
v 0.019134171618254495 1.6000000000000003 -0.0554327719506772
v 3.061616997868383e-18 1.6000000000000003 -0.06
v -0.019134171618254488 1.6000000000000003 -0.0554327719506772
v -0.035355339059327376 1.6000000000000003 -0.042426406871192854
v -0.04619397662556434 1.6000000000000003 -0.022961005941905394
v -0.05 1.6000000000000003 -7.347880794884118e-18
v -0.04619397662556435 1.6000000000000003 0.03896100594190538
v -0.03535533905932738 1.6000000000000003 0.05842640687119285
v -0.01913417161825452 1.6000000000000003 0.07143277195067718
v -9.184850993605149e-18 1.6000000000000003 0.076
v 0.0191341716182545 1.6000000000000003 0.0714327719506772
v 0.03535533905932737 1.6000000000000003 0.05842640687119286
v 0.04619397662556433 1.6000000000000003 0.03896100594190542
v 0 0.8 0
v -2.6020852139652106e-18 1.6000000000000005 0.006999999999999998
v 0.13337918494188006 1.08 0.012620375998021138
v 0.15134499116501288 1.08 -0.028011873811771327
v 0.20881694222356162 1.08 -0.051898754871430086
v 0.24061887041366878 1.08 -0.04257232671440521
v 0.2742141669049447 1.08 0.00016570899541766548
v 0.2370065679489371 1.08 0.08449480295442471
v 0.20906573118775656 1.08 0.09188511549624792
v 0.15904125760955812 1.08 0.075423767445826
v 0.17327385579135784 0.97 0.024670271554126374
v 0.18624916028584265 0.97 -0.004675242197390406
v 0.22775668049479453 0.97 -0.021926878518255068
v 0.25072473974320525 0.97 -0.015191124849292657
v 0.27498800943134893 0.97 0.015675234274468312
v 0.2481158546297879 0.97 0.07657957991152897
v 0.22793636141337978 0.97 0.08191702785840127
v 0.19180757494023642 0.97 0.07002827648865212
v 0.17924225704620117 0.84 0.03528524022095795
v 0.19072041102209156 0.84 0.009325747286923872
v 0.2274386019761644 0.84 -0.005935315612302559
v 0.2477565005420662 0.84 0.000023235710241112373
v 0.26922016218927025 0.84 0.02732809185818351
v 0.24544864063404315 0.84 0.08120501299866023
v 0.22759755048106672 0.84 0.08592660156704729
v 0.19563747013943994 0.84 0.07540962920149995
v 0.1852106583010445 0.75 0.04590020888778952
v 0.1951916617583405 0.75 0.023326736771238154
v 0.22712052345753425 0.75 0.010056247293649949
v 0.24478826134092713 0.75 0.015237596269774882
v 0.2634523149471915 0.75 0.038980949441898706
v 0.2427814266382984 0.75 0.08583044608579152
v 0.22725873954875367 0.75 0.0899361752756933
v 0.1994673653386434 0.75 0.08079098191434778
v 0.16730545453651452 0.68 0.06405530288729482
v 0.18177790954959372 0.68 0.03132376831829532
v 0.22807475901342467 0.68 0.012081558575792427
v 0.25369297894434434 0.68 0.019594514591173576
v 0.2807558566734277 0.68 0.054022376690753125
v 0.2507830686255327 0.68 0.1219541468243977
v 0.2282751723456928 0.68 0.1279074541497553
v 0.18797767974103294 0.68 0.1146469237758043
v 0.1852106583010445 0.64 0.08590020888778951
v 0.1951916617583405 0.64 0.06332673677123815
v 0.22712052345753425 0.64 0.05005624729364994
v 0.24478826134092713 0.64 0.055237596269774876
v 0.2634523149471915 0.64 0.07898094944189869
v 0.2427814266382984 0.64 0.12583044608579153
v 0.22725873954875367 0.64 0.1299361752756933
v 0.1994673653386434 0.64 0.12079098191434778
v 0.22315886891634168 0.64 0.08875741774252296
v -0.15134499116501285 1.08 -0.0280118738117713
v -0.13337918494188006 1.08 0.012620375998021216
v -0.15904125760955812 1.08 0.07542376744582599
v -0.20906573118775662 1.08 0.09188511549624792
v -0.23700656794893715 1.08 0.08449480295442469
v -0.2742141669049447 1.08 0.00016570899541769324
v -0.24061887041366878 1.08 -0.04257232671440521
v -0.2088169422235616 1.08 -0.051898754871430086
v -0.18624916028584262 0.97 -0.004675242197390385
v -0.17327385579135784 0.97 0.024670271554126433
v -0.19180757494023642 0.97 0.0700282764886521
v -0.22793636141337978 0.97 0.08191702785840127
v -0.24811585462978797 0.97 0.07657957991152894
v -0.274988009431349 0.97 0.015675234274468333
v -0.25072473974320525 0.97 -0.015191124849292657
v -0.2277566804947945 0.97 -0.021926878518255068
v -0.19072041102209156 0.84 0.00932574728692389
v -0.17924225704620117 0.84 0.035285240220958
v -0.1956374701394399 0.84 0.07540962920149993
v -0.22759755048106672 0.84 0.08592660156704729
v -0.2454486406340432 0.84 0.08120501299866022
v -0.26922016218927025 0.84 0.027328091858183527
v -0.2477565005420662 0.84 0.000023235710241112373
v -0.22743860197616436 0.84 -0.005935315612302559
v -0.1951916617583405 0.75 0.023326736771238164
v -0.1852106583010445 0.75 0.04590020888778957
v -0.1994673653386434 0.75 0.08079098191434778
v -0.2272587395487537 0.75 0.0899361752756933
v -0.24278142663829844 0.75 0.08583044608579149
v -0.2634523149471915 0.75 0.03898094944189872
v -0.24478826134092713 0.75 0.015237596269774882
v -0.22712052345753422 0.75 0.010056247293649949
v -0.1817779095495937 0.68 0.03132376831829534
v -0.16730545453651452 0.68 0.06405530288729487
v -0.18797767974103294 0.68 0.11464692377580428
v -0.22827517234569283 0.68 0.1279074541497553
v -0.25078306862553273 0.68 0.12195414682439767
v -0.28075585667342773 0.68 0.054022376690753146
v -0.25369297894434434 0.68 0.019594514591173576
v -0.22807475901342464 0.68 0.012081558575792427
v -0.1951916617583405 0.64 0.06332673677123815
v -0.1852106583010445 0.64 0.08590020888778956
v -0.1994673653386434 0.64 0.12079098191434777
v -0.2272587395487537 0.64 0.1299361752756933
v -0.24278142663829844 0.64 0.1258304460857915
v -0.2634523149471915 0.64 0.0789809494418987
v -0.24478826134092713 0.64 0.055237596269774876
v -0.22712052345753422 0.64 0.05005624729364994
v -0.22315886891634165 0.64 0.08875741774252298
v 0.0653513827711863 0.66 -0.07301799294034408
v 0.07844389863485532 0.66 -0.07808390023315362
v 0.11371470427451218 0.66 -0.08158631955378379
v 0.17503998089648998 0.66 -0.04965233504247187
v 0.11242504269674543 0.66 0.10169988408363179
v 0.08311685214049488 0.66 0.0993595425221002
v 0.07483257384764175 0.48 -0.053165864193740066
v 0.0847942707004334 0.48 -0.05702035887305167
v 0.11163075325234623 0.48 -0.05968524313874853
v 0.15829128981254673 0.48 -0.03538764622796774
v 0.11064948900839326 0.48 0.0797716509331981
v 0.08834977880255045 0.48 0.07799095626681538
v 0.08000413261661746 0.3 -0.05233743033195605
v 0.08825811000893052 0.3 -0.055531154494814244
v 0.11049405269480116 0.3 -0.057739201457820216
v 0.14915564013039587 0.3 -0.03760690687460184
v 0.10968100517838299 0.3 0.057810796487507005
v 0.09120410243639894 0.3 0.05633536376393274
v 0.08517569138559315 0.14 -0.04150899647017204
v 0.09172194931742766 0.14 -0.04404195011657681
v 0.10935735213725609 0.14 -0.04579315977689189
v 0.14001999044824498 0.14 -0.029826167521235937
v 0.10871252134837271 0.14 0.045849942041815896
v 0.09405842607024743 0.14 0.044679771261050105
v 0.08000413261661746 0.06 -0.01233743033195605
v 0.08825811000893052 0.06 -0.015531154494814244
v 0.11049405269480116 0.06 -0.017739201457820215
v 0.14915564013039587 0.06 0.002393093125398163
v 0.10968100517838299 0.06 0.09781079648750701
v 0.09120410243639894 0.06 0.09633536376393274
v 0.0825899120011053 0.045 0.08307678659893597
v 0.0899900296631791 0.045 0.08021344769430448
v 0.10992570241602861 0.045 0.07823381938264395
v 0.1445878152893204 0.045 0.09628346280208111
v 0.10919676326337785 0.045 0.18183036926466145
v 0.09263126425332319 0.045 0.18050756751249142
v 0.08862339723157694 0.04 0.15570995943768398
v 0.09403117552309241 0.04 0.1536175194689148
v 0.10859955176555938 0.04 0.15217086801039365
v 0.13392955732681108 0.04 0.16536099204767465
v 0.10806686546169919 0.04 0.22787603907802184
v 0.0959613084928131 0.04 0.22690937625912835
v 0.10486864263359202 0.04 0.18027412571696955
v -0.07844389863485521 0.66 -0.07808390023315359
v -0.06535138277118538 0.66 -0.07301799294034363
v -0.08311685214049487 0.66 0.0993595425221002
v -0.11242504269674543 0.66 0.10169988408363179
v -0.17503998089648992 0.66 -0.049652335042471935
v -0.1137147042745121 0.66 -0.0815863195537838
v -0.0847942707004333 0.48 -0.057020358873051645
v -0.07483257384764105 0.48 -0.05316586419373972
v -0.08834977880255043 0.48 0.07799095626681538
v -0.11064948900839326 0.48 0.0797716509331981
v -0.1582912898125467 0.48 -0.035387646227967785
v -0.11163075325234616 0.48 -0.059685243138748546
v -0.08825811000893045 0.3 -0.055531154494814224
v -0.08000413261661687 0.3 -0.052337430331955766
v -0.09120410243639894 0.3 0.05633536376393274
v -0.10968100517838299 0.3 0.057810796487507005
v -0.14915564013039584 0.3 -0.03760690687460188
v -0.1104940526948011 0.3 -0.05773920145782022
v -0.09172194931742761 0.14 -0.04404195011657679
v -0.0851756913855927 0.14 -0.04150899647017181
v -0.09405842607024743 0.14 0.044679771261050105
v -0.10871252134837271 0.14 0.045849942041815896
v -0.14001999044824498 0.14 -0.029826167521235968
v -0.10935735213725604 0.14 -0.0457931597768919
v -0.08825811000893045 0.06 -0.015531154494814223
v -0.08000413261661687 0.06 -0.012337430331955765
v -0.09120410243639894 0.06 0.09633536376393274
v -0.10968100517838299 0.06 0.09781079648750701
v -0.14915564013039584 0.06 0.0023930931253981214
v -0.1104940526948011 0.06 -0.017739201457820222
v -0.08999002966317902 0.045 0.0802134476943045
v -0.08258991200110478 0.045 0.08307678659893622
v -0.09263126425332319 0.045 0.18050756751249142
v -0.10919676326337785 0.045 0.18183036926466145
v -0.1445878152893204 0.045 0.09628346280208108
v -0.10992570241602857 0.045 0.07823381938264395
v -0.09403117552309237 0.04 0.15361751946891483
v -0.08862339723157657 0.04 0.15570995943768415
v -0.09596130849281309 0.04 0.22690937625912835
v -0.1080668654616992 0.04 0.22787603907802184
v -0.13392955732681106 0.04 0.16536099204767463
v -0.10859955176555934 0.04 0.15217086801039365
v -0.10486864263359193 0.04 0.18027412571696957
f 2 3 19
f 2 19 18
f 3 4 20
f 3 20 19
f 4 5 21
f 4 21 20
f 5 6 22
f 5 22 21
f 6 7 23
f 6 23 22
f 7 8 24
f 7 24 23
f 10 11 27
f 10 27 26
f 11 12 28
f 11 28 27
f 12 13 29
f 12 29 28
f 13 14 30
f 13 30 29
f 14 15 31
f 14 31 30
f 15 16 32
f 15 32 31
f 17 18 34
f 17 34 33
f 18 19 35
f 18 35 34
f 19 20 36
f 19 36 35
f 20 21 37
f 20 37 36
f 21 22 38
f 21 38 37
f 22 23 39
f 22 39 38
f 23 24 40
f 23 40 39
f 24 25 41
f 24 41 40
f 25 26 42
f 25 42 41
f 26 27 43
f 26 43 42
f 27 28 44
f 27 44 43
f 28 29 45
f 28 45 44
f 29 30 46
f 29 46 45
f 30 31 47
f 30 47 46
f 31 32 48
f 31 48 47
f 32 17 33
f 32 33 48
f 34 35 51
f 34 51 50
f 35 36 52
f 35 52 51
f 36 37 53
f 36 53 52
f 37 38 54
f 37 54 53
f 38 39 55
f 38 55 54
f 39 40 56
f 39 56 55
f 42 43 59
f 42 59 58
f 43 44 60
f 43 60 59
f 44 45 61
f 44 61 60
f 45 46 62
f 45 62 61
f 46 47 63
f 46 63 62
f 47 48 64
f 47 64 63
f 50 51 67
f 50 67 66
f 51 52 68
f 51 68 67
f 52 53 69
f 52 69 68
f 53 54 70
f 53 70 69
f 54 55 71
f 54 71 70
f 55 56 72
f 55 72 71
f 58 59 75
f 58 75 74
f 59 60 76
f 59 76 75
f 60 61 77
f 60 77 76
f 61 62 78
f 61 78 77
f 62 63 79
f 62 79 78
f 63 64 80
f 63 80 79
f 65 66 82
f 65 82 81
f 66 67 83
f 66 83 82
f 67 68 84
f 67 84 83
f 68 69 85
f 68 85 84
f 69 70 86
f 69 86 85
f 70 71 87
f 70 87 86
f 71 72 88
f 71 88 87
f 72 73 89
f 72 89 88
f 73 74 90
f 73 90 89
f 74 75 91
f 74 91 90
f 75 76 92
f 75 92 91
f 76 77 93
f 76 93 92
f 77 78 94
f 77 94 93
f 78 79 95
f 78 95 94
f 79 80 96
f 79 96 95
f 80 65 81
f 80 81 96
f 81 82 98
f 81 98 97
f 82 83 99
f 82 99 98
f 83 84 100
f 83 100 99
f 84 85 101
f 84 101 100
f 85 86 102
f 85 102 101
f 86 87 103
f 86 103 102
f 87 88 104
f 87 104 103
f 88 89 105
f 88 105 104
f 89 90 106
f 89 106 105
f 90 91 107
f 90 107 106
f 91 92 108
f 91 108 107
f 92 93 109
f 92 109 108
f 93 94 110
f 93 110 109
f 94 95 111
f 94 111 110
f 95 96 112
f 95 112 111
f 96 81 97
f 96 97 112
f 97 98 114
f 97 114 113
f 98 99 115
f 98 115 114
f 99 100 116
f 99 116 115
f 100 101 117
f 100 117 116
f 101 102 118
f 101 118 117
f 102 103 119
f 102 119 118
f 103 104 120
f 103 120 119
f 104 105 121
f 104 121 120
f 105 106 122
f 105 122 121
f 106 107 123
f 106 123 122
f 107 108 124
f 107 124 123
f 108 109 125
f 108 125 124
f 109 110 126
f 109 126 125
f 110 111 127
f 110 127 126
f 111 112 128
f 111 128 127
f 112 97 113
f 112 113 128
f 113 114 130
f 113 130 129
f 114 115 131
f 114 131 130
f 115 116 132
f 115 132 131
f 116 117 133
f 116 133 132
f 117 118 134
f 117 134 133
f 118 119 135
f 118 135 134
f 119 120 136
f 119 136 135
f 120 121 137
f 120 137 136
f 121 122 138
f 121 138 137
f 122 123 139
f 122 139 138
f 123 124 140
f 123 140 139
f 124 125 141
f 124 141 140
f 125 126 142
f 125 142 141
f 126 127 143
f 126 143 142
f 127 128 144
f 127 144 143
f 128 113 129
f 128 129 144
f 145 2 1
f 145 3 2
f 145 4 3
f 145 5 4
f 145 6 5
f 145 7 6
f 145 8 7
f 145 9 8
f 145 10 9
f 145 11 10
f 145 12 11
f 145 13 12
f 145 14 13
f 145 15 14
f 145 16 15
f 145 1 16
f 146 129 130
f 146 130 131
f 146 131 132
f 146 132 133
f 146 133 134
f 146 134 135
f 146 135 136
f 146 136 137
f 146 137 138
f 146 138 139
f 146 139 140
f 146 140 141
f 146 141 142
f 146 142 143
f 146 143 144
f 146 144 129
f 33 34 148
f 33 148 147
f 34 50 149
f 34 149 148
f 50 66 150
f 50 150 149
f 66 65 151
f 66 151 150
f 65 80 152
f 65 152 151
f 80 64 153
f 80 153 152
f 64 48 154
f 64 154 153
f 48 33 147
f 48 147 154
f 147 148 156
f 147 156 155
f 148 149 157
f 148 157 156
f 149 150 158
f 149 158 157
f 150 151 159
f 150 159 158
f 151 152 160
f 151 160 159
f 152 153 161
f 152 161 160
f 153 154 162
f 153 162 161
f 154 147 155
f 154 155 162
f 155 156 164
f 155 164 163
f 156 157 165
f 156 165 164
f 157 158 166
f 157 166 165
f 158 159 167
f 158 167 166
f 159 160 168
f 159 168 167
f 160 161 169
f 160 169 168
f 161 162 170
f 161 170 169
f 162 155 163
f 162 163 170
f 163 164 172
f 163 172 171
f 164 165 173
f 164 173 172
f 165 166 174
f 165 174 173
f 166 167 175
f 166 175 174
f 167 168 176
f 167 176 175
f 168 169 177
f 168 177 176
f 169 170 178
f 169 178 177
f 170 163 171
f 170 171 178
f 171 172 180
f 171 180 179
f 172 173 181
f 172 181 180
f 173 174 182
f 173 182 181
f 174 175 183
f 174 183 182
f 175 176 184
f 175 184 183
f 176 177 185
f 176 185 184
f 177 178 186
f 177 186 185
f 178 171 179
f 178 179 186
f 179 180 188
f 179 188 187
f 180 181 189
f 180 189 188
f 181 182 190
f 181 190 189
f 182 183 191
f 182 191 190
f 183 184 192
f 183 192 191
f 184 185 193
f 184 193 192
f 185 186 194
f 185 194 193
f 186 179 187
f 186 187 194
f 195 187 188
f 195 188 189
f 195 189 190
f 195 190 191
f 195 191 192
f 195 192 193
f 195 193 194
f 195 194 187
f 40 41 197
f 40 197 196
f 41 42 198
f 41 198 197
f 42 58 199
f 42 199 198
f 58 74 200
f 58 200 199
f 74 73 201
f 74 201 200
f 73 72 202
f 73 202 201
f 72 56 203
f 72 203 202
f 56 40 196
f 56 196 203
f 196 197 205
f 196 205 204
f 197 198 206
f 197 206 205
f 198 199 207
f 198 207 206
f 199 200 208
f 199 208 207
f 200 201 209
f 200 209 208
f 201 202 210
f 201 210 209
f 202 203 211
f 202 211 210
f 203 196 204
f 203 204 211
f 204 205 213
f 204 213 212
f 205 206 214
f 205 214 213
f 206 207 215
f 206 215 214
f 207 208 216
f 207 216 215
f 208 209 217
f 208 217 216
f 209 210 218
f 209 218 217
f 210 211 219
f 210 219 218
f 211 204 212
f 211 212 219
f 212 213 221
f 212 221 220
f 213 214 222
f 213 222 221
f 214 215 223
f 214 223 222
f 215 216 224
f 215 224 223
f 216 217 225
f 216 225 224
f 217 218 226
f 217 226 225
f 218 219 227
f 218 227 226
f 219 212 220
f 219 220 227
f 220 221 229
f 220 229 228
f 221 222 230
f 221 230 229
f 222 223 231
f 222 231 230
f 223 224 232
f 223 232 231
f 224 225 233
f 224 233 232
f 225 226 234
f 225 234 233
f 226 227 235
f 226 235 234
f 227 220 228
f 227 228 235
f 228 229 237
f 228 237 236
f 229 230 238
f 229 238 237
f 230 231 239
f 230 239 238
f 231 232 240
f 231 240 239
f 232 233 241
f 232 241 240
f 233 234 242
f 233 242 241
f 234 235 243
f 234 243 242
f 235 228 236
f 235 236 243
f 244 236 237
f 244 237 238
f 244 238 239
f 244 239 240
f 244 240 241
f 244 241 242
f 244 242 243
f 244 243 236
f 1 2 246
f 1 246 245
f 2 18 247
f 2 247 246
f 18 17 248
f 18 248 247
f 17 32 249
f 17 249 248
f 32 16 250
f 32 250 249
f 16 1 245
f 16 245 250
f 245 246 252
f 245 252 251
f 246 247 253
f 246 253 252
f 247 248 254
f 247 254 253
f 248 249 255
f 248 255 254
f 249 250 256
f 249 256 255
f 250 245 251
f 250 251 256
f 251 252 258
f 251 258 257
f 252 253 259
f 252 259 258
f 253 254 260
f 253 260 259
f 254 255 261
f 254 261 260
f 255 256 262
f 255 262 261
f 256 251 257
f 256 257 262
f 257 258 264
f 257 264 263
f 258 259 265
f 258 265 264
f 259 260 266
f 259 266 265
f 260 261 267
f 260 267 266
f 261 262 268
f 261 268 267
f 262 257 263
f 262 263 268
f 263 264 270
f 263 270 269
f 264 265 271
f 264 271 270
f 265 266 272
f 265 272 271
f 266 267 273
f 266 273 272
f 267 268 274
f 267 274 273
f 268 263 269
f 268 269 274
f 269 270 276
f 269 276 275
f 270 271 277
f 270 277 276
f 271 272 278
f 271 278 277
f 272 273 279
f 272 279 278
f 273 274 280
f 273 280 279
f 274 269 275
f 274 275 280
f 275 276 282
f 275 282 281
f 276 277 283
f 276 283 282
f 277 278 284
f 277 284 283
f 278 279 285
f 278 285 284
f 279 280 286
f 279 286 285
f 280 275 281
f 280 281 286
f 287 281 282
f 287 282 283
f 287 283 284
f 287 284 285
f 287 285 286
f 287 286 281
f 8 9 289
f 8 289 288
f 9 10 290
f 9 290 289
f 10 26 291
f 10 291 290
f 26 25 292
f 26 292 291
f 25 24 293
f 25 293 292
f 24 8 288
f 24 288 293
f 288 289 295
f 288 295 294
f 289 290 296
f 289 296 295
f 290 291 297
f 290 297 296
f 291 292 298
f 291 298 297
f 292 293 299
f 292 299 298
f 293 288 294
f 293 294 299
f 294 295 301
f 294 301 300
f 295 296 302
f 295 302 301
f 296 297 303
f 296 303 302
f 297 298 304
f 297 304 303
f 298 299 305
f 298 305 304
f 299 294 300
f 299 300 305
f 300 301 307
f 300 307 306
f 301 302 308
f 301 308 307
f 302 303 309
f 302 309 308
f 303 304 310
f 303 310 309
f 304 305 311
f 304 311 310
f 305 300 306
f 305 306 311
f 306 307 313
f 306 313 312
f 307 308 314
f 307 314 313
f 308 309 315
f 308 315 314
f 309 310 316
f 309 316 315
f 310 311 317
f 310 317 316
f 311 306 312
f 311 312 317
f 312 313 319
f 312 319 318
f 313 314 320
f 313 320 319
f 314 315 321
f 314 321 320
f 315 316 322
f 315 322 321
f 316 317 323
f 316 323 322
f 317 312 318
f 317 318 323
f 318 319 325
f 318 325 324
f 319 320 326
f 319 326 325
f 320 321 327
f 320 327 326
f 321 322 328
f 321 328 327
f 322 323 329
f 322 329 328
f 323 318 324
f 323 324 329
f 330 324 325
f 330 325 326
f 330 326 327
f 330 327 328
f 330 328 329
f 330 329 324
