# body
v 0.14 0.8 -0.01
v 0.12934313455158017 0.8 -0.048268343236508984
v 0.09899494936611666 0.8 -0.08071067811865475
v 0.053575680531112585 0.8 -0.10238795325112868
v 8.572527594031473e-18 0.8 -0.11
v -0.053575680531112564 0.8 -0.10238795325112868
v -0.09899494936611665 0.8 -0.08071067811865476
v -0.12934313455158017 0.8 -0.04826834323650899
v -0.14 0.8 -0.010000000000000012
v -0.12934313455158017 0.8 0.04826834323650897
v -0.09899494936611669 0.8 0.08071067811865475
v -0.053575680531112654 0.8 0.10238795325112865
v -2.571758278209442e-17 0.8 0.11
v 0.053575680531112606 0.8 0.10238795325112866
v 0.09899494936611664 0.8 0.08071067811865476
v 0.1293431345515801 0.8 0.04826834323650905
v 0.16 0.92 -0.02
v 0.1478207252018059 0.92 -0.06209517756015988
v 0.11313708498984762 0.92 -0.09778174593052022
v 0.061229349178414376 0.92 -0.12162674857624155
v 9.797174393178826e-18 0.92 -0.13
v -0.061229349178414355 0.92 -0.12162674857624155
v -0.11313708498984759 0.92 -0.09778174593052023
v -0.1478207252018059 0.92 -0.06209517756015989
v -0.16 0.92 -0.020000000000000014
v -0.1478207252018059 0.92 0.062095177560159864
v -0.11313708498984763 0.92 0.09778174593052022
v -0.06122934917841445 0.92 0.12162674857624152
v -2.9391523179536474e-17 0.92 0.13
v 0.061229349178414404 0.92 0.12162674857624153
v 0.11313708498984758 0.92 0.09778174593052025
v 0.14782072520180584 0.92 0.06209517756015995
v 0.12 1.04 -0.01
v 0.1108655439013544 1.04 -0.04444150891285808
v 0.08485281374238571 1.04 -0.07363961030678927
v 0.04592201188381078 1.04 -0.0931491579260158
v 7.347880794884118e-18 1.04 -0.09999999999999999
v -0.045922011883810766 1.04 -0.0931491579260158
v -0.0848528137423857 1.04 -0.07363961030678927
v -0.1108655439013544 1.04 -0.04444150891285809
v -0.12 1.04 -0.01000000000000001
v -0.11086554390135442 1.04 0.04444150891285807
v -0.08485281374238572 1.04 0.07363961030678927
v -0.045922011883810836 1.04 0.09314915792601577
v -2.2043642384652355e-17 1.04 0.09999999999999999
v 0.0459220118838108 1.04 0.09314915792601579
v 0.08485281374238568 1.04 0.07363961030678928
v 0.11086554390135438 1.04 0.044441508912858134
v 0.17 1.16 -0.03
v 0.15705952052691877 1.16 -0.07974884620746167
v 0.1202081528017131 1.16 -0.12192388155425117
v 0.06505618350206528 1.16 -0.15010433922646726
v 1.0409497792752502e-17 1.16 -0.16
v -0.06505618350206525 1.16 -0.15010433922646726
v -0.12020815280171308 1.16 -0.12192388155425118
v -0.15705952052691877 1.16 -0.07974884620746168
v -0.17 1.16 -0.030000000000000016
v -0.15705952052691877 1.16 0.062095177560159864
v -0.12020815280171311 1.16 0.09778174593052022
v -0.06505618350206537 1.16 0.12162674857624152
v -3.1228493378257505e-17 1.16 0.13
v 0.06505618350206531 1.16 0.12162674857624153
v 0.12020815280171306 1.16 0.09778174593052025
v 0.1570595205269187 1.16 0.06209517756015995
v 0.2 1.28 -0.02
v 0.18477590650225736 1.28 -0.06209517756015988
v 0.14142135623730953 1.28 -0.09778174593052022
v 0.07653668647301798 1.28 -0.12162674857624155
v 1.2246467991473533e-17 1.28 -0.13
v -0.07653668647301795 1.28 -0.12162674857624155
v -0.1414213562373095 1.28 -0.09778174593052023
v -0.18477590650225736 1.28 -0.06209517756015989
v -0.2 1.28 -0.020000000000000014
v -0.1847759065022574 1.28 0.05709517756015987
v -0.14142135623730953 1.28 0.09278174593052022
v -0.07653668647301808 1.28 0.11662674857624152
v -3.6739403974420595e-17 1.28 0.125
v 0.076536686473018 1.28 0.11662674857624153
v 0.14142135623730948 1.28 0.09278174593052024
v 0.1847759065022573 1.28 0.05709517756015994
v 0.06 1.36 -0.005
v 0.0554327719506772 1.36 -0.026047588780079938
v 0.042426406871192854 1.36 -0.043890872965260105
v 0.02296100594190539 1.36 -0.05581337428812077
v 3.673940397442059e-18 1.36 -0.06
v -0.022961005941905383 1.36 -0.05581337428812077
v -0.04242640687119285 1.36 -0.04389087296526011
v -0.0554327719506772 1.36 -0.026047588780079945
v -0.06 1.36 -0.005000000000000007
v -0.05543277195067721 1.36 0.027047588780079936
v -0.04242640687119286 1.36 0.044890872965260106
v -0.022961005941905418 1.36 0.056813374288120756
v -1.1021821192326178e-17 1.36 0.061
v 0.0229610059419054 1.36 0.05681337428812076
v 0.04242640687119284 1.36 0.04489087296526012
v 0.05543277195067719 1.36 0.02704758878007997
v 0.095 1.44 -0.01
v 0.08776855558857224 1.44 -0.048268343236508984
v 0.06717514421272203 1.44 -0.08071067811865475
v 0.03635492607468353 1.44 -0.10238795325112868
v 5.817072295949928e-18 1.44 -0.11
v -0.036354926074683526 1.44 -0.10238795325112868
v -0.06717514421272201 1.44 -0.08071067811865476
v -0.08776855558857224 1.44 -0.04826834323650899
v -0.095 1.44 -0.010000000000000012
v -0.08776855558857226 1.44 0.05709517756015987
v -0.06717514421272203 1.44 0.09278174593052022
v -0.03635492607468358 1.44 0.11662674857624152
v -1.745121688784978e-17 1.44 0.125
v 0.036354926074683554 1.44 0.11662674857624153
v 0.067175144212722 1.44 0.09278174593052024
v 0.08776855558857222 1.44 0.05709517756015994
v 0.09 1.52 -0.01
v 0.08314915792601581 1.52 -0.046354926074683535
v 0.06363961030678927 1.52 -0.07717514421272201
v 0.03444150891285808 1.52 -0.09776855558857224
v 5.5109105961630896e-18 1.52 -0.105
v -0.034441508912858076 1.52 -0.09776855558857224
v -0.06363961030678927 1.52 -0.07717514421272202
v -0.08314915792601581 1.52 -0.04635492607468354
v -0.09 1.52 -0.010000000000000012
v -0.08314915792601581 1.52 0.05326834323650897
v -0.06363961030678929 1.52 0.08571067811865475
v -0.03444150891285813 1.52 0.10738795325112865
v -1.6532731788489266e-17 1.52 0.115
v 0.0344415089128581 1.52 0.10738795325112867
v 0.06363961030678926 1.52 0.08571067811865477
v 0.08314915792601578 1.52 0.053268343236509044
v 0.05 1.6000000000000003 0
v 0.04619397662556434 1.6000000000000003 -0.022961005941905387
v 0.03535533905932738 1.6000000000000003 -0.04242640687119285
v 0.019134171618254495 1.6000000000000003 -0.0554327719506772
v 3.061616997868383e-18 1.6000000000000003 -0.06
v -0.019134171618254488 1.6000000000000003 -0.0554327719506772
v -0.035355339059327376 1.6000000000000003 -0.042426406871192854
v -0.04619397662556434 1.6000000000000003 -0.022961005941905394
v -0.05 1.6000000000000003 -7.347880794884118e-18
v -0.04619397662556435 1.6000000000000003 0.03896100594190538
v -0.03535533905932738 1.6000000000000003 0.05842640687119285
v -0.01913417161825452 1.6000000000000003 0.07143277195067718
v -9.184850993605149e-18 1.6000000000000003 0.076
v 0.0191341716182545 1.6000000000000003 0.0714327719506772
v 0.03535533905932737 1.6000000000000003 0.05842640687119286
v 0.04619397662556433 1.6000000000000003 0.03896100594190542
v 0 0.8 0
v -2.6020852139652106e-18 1.6000000000000005 0.006999999999999998
v 0.13337918494188006 1.08 0.012620375998021138
v 0.15134499116501288 1.08 -0.028011873811771327
v 0.20881694222356162 1.08 -0.051898754871430086
v 0.24061887041366878 1.08 -0.04257232671440521
v 0.2742141669049447 1.08 0.00016570899541766548
v 0.2370065679489371 1.08 0.08449480295442471
v 0.20906573118775656 1.08 0.09188511549624792
v 0.15904125760955812 1.08 0.075423767445826
v 0.17327385579135784 0.97 0.024670271554126374
v 0.18624916028584265 0.97 -0.004675242197390406
v 0.22775668049479453 0.97 -0.021926878518255068
v 0.25072473974320525 0.97 -0.015191124849292657
v 0.27498800943134893 0.97 0.015675234274468312
v 0.2481158546297879 0.97 0.07657957991152897
v 0.22793636141337978 0.97 0.08191702785840127
v 0.19180757494023642 0.97 0.07002827648865212
v 0.17924225704620117 0.84 0.03528524022095795
v 0.19072041102209156 0.84 0.009325747286923872
v 0.2274386019761644 0.84 -0.005935315612302559
v 0.2477565005420662 0.84 0.000023235710241112373
v 0.26922016218927025 0.84 0.02732809185818351
v 0.24544864063404315 0.84 0.08120501299866023
v 0.22759755048106672 0.84 0.08592660156704729
v 0.19563747013943994 0.84 0.07540962920149995
v 0.1852106583010445 0.75 0.04590020888778952
v 0.1951916617583405 0.75 0.023326736771238154
v 0.22712052345753425 0.75 0.010056247293649949
v 0.24478826134092713 0.75 0.015237596269774882
v 0.2634523149471915 0.75 0.038980949441898706
v 0.2427814266382984 0.75 0.08583044608579152
v 0.22725873954875367 0.75 0.0899361752756933
v 0.1994673653386434 0.75 0.08079098191434778
v 0.16730545453651452 0.68 0.06405530288729482
v 0.18177790954959372 0.68 0.03132376831829532
v 0.22807475901342467 0.68 0.012081558575792427
v 0.25369297894434434 0.68 0.019594514591173576
v 0.2807558566734277 0.68 0.054022376690753125
v 0.2507830686255327 0.68 0.1219541468243977
v 0.2282751723456928 0.68 0.1279074541497553
v 0.18797767974103294 0.68 0.1146469237758043
v 0.19117905955588782 0.64 0.08651517755462108
v 0.19966291249458942 0.64 0.06732772625555242
v 0.2268024449389041 0.64 0.05604781019960245
v 0.24182002213978804 0.64 0.06045195682930864
v 0.2576844677051128 0.64 0.08063380702561389
v 0.24011421264255364 0.64 0.12045587917292279
v 0.2269199286164406 0.64 0.1239457489843393
v 0.2032972605378469 0.64 0.11617233462719562
v 0.2234350385788904 0.64 0.08894380508114452
v -0.15134499116501285 1.08 -0.0280118738117713
v -0.13337918494188006 1.08 0.012620375998021216
v -0.15904125760955812 1.08 0.07542376744582599
v -0.20906573118775662 1.08 0.09188511549624792
v -0.23700656794893715 1.08 0.08449480295442469
v -0.2742141669049447 1.08 0.00016570899541769324
v -0.24061887041366878 1.08 -0.04257232671440521
v -0.2088169422235616 1.08 -0.051898754871430086
v -0.18624916028584262 0.97 -0.004675242197390385
v -0.17327385579135784 0.97 0.024670271554126433
v -0.19180757494023642 0.97 0.0700282764886521
v -0.22793636141337978 0.97 0.08191702785840127
v -0.24811585462978797 0.97 0.07657957991152894
v -0.274988009431349 0.97 0.015675234274468333
v -0.25072473974320525 0.97 -0.015191124849292657
v -0.2277566804947945 0.97 -0.021926878518255068
v -0.19072041102209156 0.84 0.00932574728692389
v -0.17924225704620117 0.84 0.035285240220958
v -0.1956374701394399 0.84 0.07540962920149993
v -0.22759755048106672 0.84 0.08592660156704729
v -0.2454486406340432 0.84 0.08120501299866022
v -0.26922016218927025 0.84 0.027328091858183527
v -0.2477565005420662 0.84 0.000023235710241112373
v -0.22743860197616436 0.84 -0.005935315612302559
v -0.1951916617583405 0.75 0.023326736771238164
v -0.1852106583010445 0.75 0.04590020888778957
v -0.1994673653386434 0.75 0.08079098191434778
v -0.2272587395487537 0.75 0.0899361752756933
v -0.24278142663829844 0.75 0.08583044608579149
v -0.2634523149471915 0.75 0.03898094944189872
v -0.24478826134092713 0.75 0.015237596269774882
v -0.22712052345753422 0.75 0.010056247293649949
v -0.1817779095495937 0.68 0.03132376831829534
v -0.16730545453651452 0.68 0.06405530288729487
v -0.18797767974103294 0.68 0.11464692377580428
v -0.22827517234569283 0.68 0.1279074541497553
v -0.25078306862553273 0.68 0.12195414682439767
v -0.28075585667342773 0.68 0.054022376690753146
v -0.25369297894434434 0.68 0.019594514591173576
v -0.22807475901342464 0.68 0.012081558575792427
v -0.1996629124945894 0.64 0.06732772625555243
v -0.19117905955588782 0.64 0.08651517755462113
v -0.20329726053784689 0.64 0.1161723346271956
v -0.22691992861644064 0.64 0.1239457489843393
v -0.24011421264255367 0.64 0.12045587917292278
v -0.2576844677051128 0.64 0.0806338070256139
v -0.24182002213978804 0.64 0.06045195682930864
v -0.22680244493890409 0.64 0.05604781019960245
v -0.2234350385788904 0.64 0.08894380508114454
v 0.14038559307151185 0.66 0.09492266954693176
v 0.0888318601526954 0.66 -0.0805681580572223
v 0.05607942509047274 0.66 -0.06791519332274888
v 0.08009245973574382 0.66 -0.07856418259084458
v 0.139371612242397 0.66 -0.07533810562614045
v 0.19471580323581572 0.66 0.03037338091118888
v 0.1199448028319933 0.66 0.10077804177394907
v 0.10010020620612714 0.66 0.10186942919588389
v 0.13192382081528076 0.48 0.07461507465527417
v 0.09269815446400737 0.48 -0.05891055504353871
v 0.06777782343840316 0.48 -0.049283299267308935
v 0.08604861066850072 0.48 -0.05738579110172957
v 0.13115231366269336 0.48 -0.0549311673242373
v 0.17326202420116416 0.48 0.025501485475904584
v 0.11637104563303838 0.48 0.07907024917583082
v 0.10127189602640108 0.48 0.0799006526490421
v 0.12653905665222462 0.3 0.05669205972421933
v 0.0951585235712059 0.3 -0.050128444034830966
v 0.07522225875072254 0.3 -0.042426639413847146
v 0.08983888853480058 0.3 -0.04890863288138366
v 0.1259218509301547 0.3 -0.046944933859389845
v 0.15960961936093132 0.3 0.017401188380723666
v 0.1140968365064307 0.3 0.06025619934066466
v 0.10201751682112087 0.3 0.060920522119233676
v 0.12269279653575593 0.13 0.042461334773465885
v 0.0969159300763477 0.13 -0.045284079028611146
v 0.08053971254523637 0.13 -0.03895759666137444
v 0.09254622986787191 0.13 -0.044282091295422286
v 0.1221858061211985 0.13 -0.04266905281307022
v 0.14985790161790785 0.13 0.010186690455594439
v 0.11247240141599664 0.13 0.04538902088697454
v 0.10255010310306356 0.13 0.04593471459794195
v 0.12730830867551834 0.05 0.07353820471437003
v 0.09480704227017753 0.05 -0.037097317036074925
v 0.07415876799181977 0.05 -0.029120447964341687
v 0.08929742026818632 0.05 -0.03583394119857593
v 0.12666905989194593 0.05 -0.03380011006865376
v 0.161559962909536 0.05 0.03284408796574951
v 0.11442172352451752 0.05 0.07722963503140269
v 0.10191099956473232 0.05 0.07791768362349202
v 0.1242313005823434 0.015 0.16615362475376727
v 0.09621296747429098 0.015 0.07077817496890092
v 0.07841273102743083 0.015 0.07765478623763647
v 0.09146329333464337 0.015 0.07186729207019316
v 0.12368022404478098 0.015 0.07362059476840192
v 0.15375858871511724 0.015 0.13107248962564613
v 0.11312217545217026 0.015 0.16933589226845058
v 0.10233706859028649 0.015 0.16992903760645864
v 0.11807728439599352 0.005 0.23138446483256175
v 0.09902481788251787 0.005 0.16652915897885262
v 0.08692065709865296 0.005 0.1712052546415928
v 0.09579503946755749 0.005 0.16726975860773136
v 0.11770255235045107 0.005 0.16846200444251333
v 0.13815584032627973 0.005 0.20752929294543937
v 0.11052307930747578 0.005 0.2335484067425464
v 0.1031892066413948 0.005 0.2339517455723919
v 0.10867355968379039 0.005 0.1974850108454537
v -0.0560794250904727 0.66 -0.06791519332274885
v -0.08883186015269524 0.66 -0.08056815805722228
v -0.14038559307151172 0.66 0.09492266954693182
v -0.10010020620612717 0.66 0.10186942919588389
v -0.11994480283199332 0.66 0.10077804177394907
v -0.19471580323581572 0.66 0.030373380911188956
v -0.13937161224239697 0.66 -0.07533810562614048
v -0.08009245973574373 0.66 -0.07856418259084456
v -0.06777782343840313 0.48 -0.049283299267308914
v -0.09269815446400724 0.48 -0.0589105550435387
v -0.13192382081528065 0.48 0.07461507465527421
v -0.1012718960264011 0.48 0.0799006526490421
v -0.1163710456330384 0.48 0.07907024917583082
v -0.17326202420116413 0.48 0.02550148547590464
v -0.13115231366269334 0.48 -0.054931167324237314
v -0.08604861066850067 0.48 -0.057385791101729554
v -0.07522225875072251 0.3 -0.04242663941384713
v -0.0951585235712058 0.3 -0.05012844403483096
v -0.1265390566522245 0.3 0.05669205972421937
v -0.10201751682112088 0.3 0.060920522119233676
v -0.11409683650643072 0.3 0.06025619934066466
v -0.1596096193609313 0.3 0.01740118838072371
v -0.12592185093015468 0.3 -0.04694493385938985
v -0.08983888853480053 0.3 -0.04890863288138365
v -0.08053971254523634 0.13 -0.038957596661374425
v -0.09691593007634762 0.13 -0.04528407902861114
v -0.12269279653575585 0.13 0.04246133477346591
v -0.10255010310306358 0.13 0.04593471459794195
v -0.11247240141599667 0.13 0.04538902088697454
v -0.14985790161790785 0.13 0.010186690455594477
v -0.12218580612119848 0.13 -0.042669052813070235
v -0.09254622986787187 0.13 -0.04428209129542228
v -0.07415876799181974 0.05 -0.029120447964341673
v -0.09480704227017743 0.05 -0.03709731703607491
v -0.12730830867551826 0.05 0.07353820471437007
v -0.10191099956473235 0.05 0.07791768362349202
v -0.11442172352451753 0.05 0.07722963503140269
v -0.161559962909536 0.05 0.03284408796574956
v -0.1266690598919459 0.05 -0.03380011006865377
v -0.08929742026818627 0.05 -0.035833941198575914
v -0.07841273102743081 0.015 0.07765478623763648
v -0.0962129674742909 0.015 0.07077817496890093
v -0.12423130058234332 0.015 0.1661536247537673
v -0.1023370685902865 0.015 0.16992903760645864
v -0.11312217545217029 0.015 0.16933589226845058
v -0.15375858871511722 0.015 0.13107248962564616
v -0.12368022404478096 0.015 0.07362059476840191
v -0.09146329333464333 0.015 0.07186729207019317
v -0.08692065709865295 0.005 0.1712052546415928
v -0.0990248178825178 0.005 0.16652915897885265
v -0.11807728439599345 0.005 0.23138446483256178
v -0.10318920664139482 0.005 0.2339517455723919
v -0.11052307930747579 0.005 0.2335484067425464
v -0.13815584032627973 0.005 0.2075292929454394
v -0.11770255235045105 0.005 0.1684620044425133
v -0.09579503946755746 0.005 0.16726975860773136
v -0.10867355968379036 0.005 0.1974850108454537
f 3 4 20
f 3 20 19
f 4 5 21
f 4 21 20
f 5 6 22
f 5 22 21
f 6 7 23
f 6 23 22
f 10 11 27
f 10 27 26
f 11 12 28
f 11 28 27
f 12 13 29
f 12 29 28
f 13 14 30
f 13 30 29
f 14 15 31
f 14 31 30
f 15 16 32
f 15 32 31
f 17 18 34
f 17 34 33
f 18 19 35
f 18 35 34
f 19 20 36
f 19 36 35
f 20 21 37
f 20 37 36
f 21 22 38
f 21 38 37
f 22 23 39
f 22 39 38
f 23 24 40
f 23 40 39
f 24 25 41
f 24 41 40
f 25 26 42
f 25 42 41
f 26 27 43
f 26 43 42
f 27 28 44
f 27 44 43
f 28 29 45
f 28 45 44
f 29 30 46
f 29 46 45
f 30 31 47
f 30 47 46
f 31 32 48
f 31 48 47
f 32 17 33
f 32 33 48
f 34 35 51
f 34 51 50
f 35 36 52
f 35 52 51
f 36 37 53
f 36 53 52
f 37 38 54
f 37 54 53
f 38 39 55
f 38 55 54
f 39 40 56
f 39 56 55
f 42 43 59
f 42 59 58
f 43 44 60
f 43 60 59
f 44 45 61
f 44 61 60
f 45 46 62
f 45 62 61
f 46 47 63
f 46 63 62
f 47 48 64
f 47 64 63
f 50 51 67
f 50 67 66
f 51 52 68
f 51 68 67
f 52 53 69
f 52 69 68
f 53 54 70
f 53 70 69
f 54 55 71
f 54 71 70
f 55 56 72
f 55 72 71
f 58 59 75
f 58 75 74
f 59 60 76
f 59 76 75
f 60 61 77
f 60 77 76
f 61 62 78
f 61 78 77
f 62 63 79
f 62 79 78
f 63 64 80
f 63 80 79
f 65 66 82
f 65 82 81
f 66 67 83
f 66 83 82
f 67 68 84
f 67 84 83
f 68 69 85
f 68 85 84
f 69 70 86
f 69 86 85
f 70 71 87
f 70 87 86
f 71 72 88
f 71 88 87
f 72 73 89
f 72 89 88
f 73 74 90
f 73 90 89
f 74 75 91
f 74 91 90
f 75 76 92
f 75 92 91
f 76 77 93
f 76 93 92
f 77 78 94
f 77 94 93
f 78 79 95
f 78 95 94
f 79 80 96
f 79 96 95
f 80 65 81
f 80 81 96
f 81 82 98
f 81 98 97
f 82 83 99
f 82 99 98
f 83 84 100
f 83 100 99
f 84 85 101
f 84 101 100
f 85 86 102
f 85 102 101
f 86 87 103
f 86 103 102
f 87 88 104
f 87 104 103
f 88 89 105
f 88 105 104
f 89 90 106
f 89 106 105
f 90 91 107
f 90 107 106
f 91 92 108
f 91 108 107
f 92 93 109
f 92 109 108
f 93 94 110
f 93 110 109
f 94 95 111
f 94 111 110
f 95 96 112
f 95 112 111
f 96 81 97
f 96 97 112
f 97 98 114
f 97 114 113
f 98 99 115
f 98 115 114
f 99 100 116
f 99 116 115
f 100 101 117
f 100 117 116
f 101 102 118
f 101 118 117
f 102 103 119
f 102 119 118
f 103 104 120
f 103 120 119
f 104 105 121
f 104 121 120
f 105 106 122
f 105 122 121
f 106 107 123
f 106 123 122
f 107 108 124
f 107 124 123
f 108 109 125
f 108 125 124
f 109 110 126
f 109 126 125
f 110 111 127
f 110 127 126
f 111 112 128
f 111 128 127
f 112 97 113
f 112 113 128
f 113 114 130
f 113 130 129
f 114 115 131
f 114 131 130
f 115 116 132
f 115 132 131
f 116 117 133
f 116 133 132
f 117 118 134
f 117 134 133
f 118 119 135
f 118 135 134
f 119 120 136
f 119 136 135
f 120 121 137
f 120 137 136
f 121 122 138
f 121 138 137
f 122 123 139
f 122 139 138
f 123 124 140
f 123 140 139
f 124 125 141
f 124 141 140
f 125 126 142
f 125 142 141
f 126 127 143
f 126 143 142
f 127 128 144
f 127 144 143
f 128 113 129
f 128 129 144
f 145 2 1
f 145 3 2
f 145 4 3
f 145 5 4
f 145 6 5
f 145 7 6
f 145 8 7
f 145 9 8
f 145 10 9
f 145 11 10
f 145 12 11
f 145 13 12
f 145 14 13
f 145 15 14
f 145 16 15
f 145 1 16
f 146 129 130
f 146 130 131
f 146 131 132
f 146 132 133
f 146 133 134
f 146 134 135
f 146 135 136
f 146 136 137
f 146 137 138
f 146 138 139
f 146 139 140
f 146 140 141
f 146 141 142
f 146 142 143
f 146 143 144
f 146 144 129
f 33 34 148
f 33 148 147
f 34 50 149
f 34 149 148
f 50 66 150
f 50 150 149
f 66 65 151
f 66 151 150
f 65 80 152
f 65 152 151
f 80 64 153
f 80 153 152
f 64 48 154
f 64 154 153
f 48 33 147
f 48 147 154
f 147 148 156
f 147 156 155
f 148 149 157
f 148 157 156
f 149 150 158
f 149 158 157
f 150 151 159
f 150 159 158
f 151 152 160
f 151 160 159
f 152 153 161
f 152 161 160
f 153 154 162
f 153 162 161
f 154 147 155
f 154 155 162
f 155 156 164
f 155 164 163
f 156 157 165
f 156 165 164
f 157 158 166
f 157 166 165
f 158 159 167
f 158 167 166
f 159 160 168
f 159 168 167
f 160 161 169
f 160 169 168
f 161 162 170
f 161 170 169
f 162 155 163
f 162 163 170
f 163 164 172
f 163 172 171
f 164 165 173
f 164 173 172
f 165 166 174
f 165 174 173
f 166 167 175
f 166 175 174
f 167 168 176
f 167 176 175
f 168 169 177
f 168 177 176
f 169 170 178
f 169 178 177
f 170 163 171
f 170 171 178
f 171 172 180
f 171 180 179
f 172 173 181
f 172 181 180
f 173 174 182
f 173 182 181
f 174 175 183
f 174 183 182
f 175 176 184
f 175 184 183
f 176 177 185
f 176 185 184
f 177 178 186
f 177 186 185
f 178 171 179
f 178 179 186
f 179 180 188
f 179 188 187
f 180 181 189
f 180 189 188
f 181 182 190
f 181 190 189
f 182 183 191
f 182 191 190
f 183 184 192
f 183 192 191
f 184 185 193
f 184 193 192
f 185 186 194
f 185 194 193
f 186 179 187
f 186 187 194
f 195 187 188
f 195 188 189
f 195 189 190
f 195 190 191
f 195 191 192
f 195 192 193
f 195 193 194
f 195 194 187
f 40 41 197
f 40 197 196
f 41 42 198
f 41 198 197
f 42 58 199
f 42 199 198
f 58 74 200
f 58 200 199
f 74 73 201
f 74 201 200
f 73 72 202
f 73 202 201
f 72 56 203
f 72 203 202
f 56 40 196
f 56 196 203
f 196 197 205
f 196 205 204
f 197 198 206
f 197 206 205
f 198 199 207
f 198 207 206
f 199 200 208
f 199 208 207
f 200 201 209
f 200 209 208
f 201 202 210
f 201 210 209
f 202 203 211
f 202 211 210
f 203 196 204
f 203 204 211
f 204 205 213
f 204 213 212
f 205 206 214
f 205 214 213
f 206 207 215
f 206 215 214
f 207 208 216
f 207 216 215
f 208 209 217
f 208 217 216
f 209 210 218
f 209 218 217
f 210 211 219
f 210 219 218
f 211 204 212
f 211 212 219
f 212 213 221
f 212 221 220
f 213 214 222
f 213 222 221
f 214 215 223
f 214 223 222
f 215 216 224
f 215 224 223
f 216 217 225
f 216 225 224
f 217 218 226
f 217 226 225
f 218 219 227
f 218 227 226
f 219 212 220
f 219 220 227
f 220 221 229
f 220 229 228
f 221 222 230
f 221 230 229
f 222 223 231
f 222 231 230
f 223 224 232
f 223 232 231
f 224 225 233
f 224 233 232
f 225 226 234
f 225 234 233
f 226 227 235
f 226 235 234
f 227 220 228
f 227 228 235
f 228 229 237
f 228 237 236
f 229 230 238
f 229 238 237
f 230 231 239
f 230 239 238
f 231 232 240
f 231 240 239
f 232 233 241
f 232 241 240
f 233 234 242
f 233 242 241
f 234 235 243
f 234 243 242
f 235 228 236
f 235 236 243
f 244 236 237
f 244 237 238
f 244 238 239
f 244 239 240
f 244 240 241
f 244 241 242
f 244 242 243
f 244 243 236
f 1 2 246
f 1 246 245
f 2 3 247
f 2 247 246
f 3 19 248
f 3 248 247
f 19 18 249
f 19 249 248
f 18 17 250
f 18 250 249
f 17 32 251
f 17 251 250
f 32 16 252
f 32 252 251
f 16 1 245
f 16 245 252
f 245 246 254
f 245 254 253
f 246 247 255
f 246 255 254
f 247 248 256
f 247 256 255
f 248 249 257
f 248 257 256
f 249 250 258
f 249 258 257
f 250 251 259
f 250 259 258
f 251 252 260
f 251 260 259
f 252 245 253
f 252 253 260
f 253 254 262
f 253 262 261
f 254 255 263
f 254 263 262
f 255 256 264
f 255 264 263
f 256 257 265
f 256 265 264
f 257 258 266
f 257 266 265
f 258 259 267
f 258 267 266
f 259 260 268
f 259 268 267
f 260 253 261
f 260 261 268
f 261 262 270
f 261 270 269
f 262 263 271
f 262 271 270
f 263 264 272
f 263 272 271
f 264 265 273
f 264 273 272
f 265 266 274
f 265 274 273
f 266 267 275
f 266 275 274
f 267 268 276
f 267 276 275
f 268 261 269
f 268 269 276
f 269 270 278
f 269 278 277
f 270 271 279
f 270 279 278
f 271 272 280
f 271 280 279
f 272 273 281
f 272 281 280
f 273 274 282
f 273 282 281
f 274 275 283
f 274 283 282
f 275 276 284
f 275 284 283
f 276 269 277
f 276 277 284
f 277 278 286
f 277 286 285
f 278 279 287
f 278 287 286
f 279 280 288
f 279 288 287
f 280 281 289
f 280 289 288
f 281 282 290
f 281 290 289
f 282 283 291
f 282 291 290
f 283 284 292
f 283 292 291
f 284 277 285
f 284 285 292
f 285 286 294
f 285 294 293
f 286 287 295
f 286 295 294
f 287 288 296
f 287 296 295
f 288 289 297
f 288 297 296
f 289 290 298
f 289 298 297
f 290 291 299
f 290 299 298
f 291 292 300
f 291 300 299
f 292 285 293
f 292 293 300
f 301 293 294
f 301 294 295
f 301 295 296
f 301 296 297
f 301 297 298
f 301 298 299
f 301 299 300
f 301 300 293
f 7 8 303
f 7 303 302
f 8 9 304
f 8 304 303
f 9 10 305
f 9 305 304
f 10 26 306
f 10 306 305
f 26 25 307
f 26 307 306
f 25 24 308
f 25 308 307
f 24 23 309
f 24 309 308
f 23 7 302
f 23 302 309
f 302 303 311
f 302 311 310
f 303 304 312
f 303 312 311
f 304 305 313
f 304 313 312
f 305 306 314
f 305 314 313
f 306 307 315
f 306 315 314
f 307 308 316
f 307 316 315
f 308 309 317
f 308 317 316
f 309 302 310
f 309 310 317
f 310 311 319
f 310 319 318
f 311 312 320
f 311 320 319
f 312 313 321
f 312 321 320
f 313 314 322
f 313 322 321
f 314 315 323
f 314 323 322
f 315 316 324
f 315 324 323
f 316 317 325
f 316 325 324
f 317 310 318
f 317 318 325
f 318 319 327
f 318 327 326
f 319 320 328
f 319 328 327
f 320 321 329
f 320 329 328
f 321 322 330
f 321 330 329
f 322 323 331
f 322 331 330
f 323 324 332
f 323 332 331
f 324 325 333
f 324 333 332
f 325 318 326
f 325 326 333
f 326 327 335
f 326 335 334
f 327 328 336
f 327 336 335
f 328 329 337
f 328 337 336
f 329 330 338
f 329 338 337
f 330 331 339
f 330 339 338
f 331 332 340
f 331 340 339
f 332 333 341
f 332 341 340
f 333 326 334
f 333 334 341
f 334 335 343
f 334 343 342
f 335 336 344
f 335 344 343
f 336 337 345
f 336 345 344
f 337 338 346
f 337 346 345
f 338 339 347
f 338 347 346
f 339 340 348
f 339 348 347
f 340 341 349
f 340 349 348
f 341 334 342
f 341 342 349
f 342 343 351
f 342 351 350
f 343 344 352
f 343 352 351
f 344 345 353
f 344 353 352
f 345 346 354
f 345 354 353
f 346 347 355
f 346 355 354
f 347 348 356
f 347 356 355
f 348 349 357
f 348 357 356
f 349 342 350
f 349 350 357
f 358 350 351
f 358 351 352
f 358 352 353
f 358 353 354
f 358 354 355
f 358 355 356
f 358 356 357
f 358 357 350
