# body
v 0.14 0.8 -0.01
v 0.12934313455158017 0.8 -0.048268343236508984
v 0.09899494936611666 0.8 -0.08071067811865475
v 0.053575680531112585 0.8 -0.10238795325112868
v 8.572527594031473e-18 0.8 -0.11
v -0.053575680531112564 0.8 -0.10238795325112868
v -0.09899494936611665 0.8 -0.08071067811865476
v -0.12934313455158017 0.8 -0.04826834323650899
v -0.14 0.8 -0.010000000000000012
v -0.12934313455158017 0.8 0.04826834323650897
v -0.09899494936611669 0.8 0.08071067811865475
v -0.053575680531112654 0.8 0.10238795325112865
v -2.571758278209442e-17 0.8 0.11
v 0.053575680531112606 0.8 0.10238795325112866
v 0.09899494936611664 0.8 0.08071067811865476
v 0.1293431345515801 0.8 0.04826834323650905
v 0.16 0.92 -0.02
v 0.1478207252018059 0.92 -0.06209517756015988
v 0.11313708498984762 0.92 -0.09778174593052022
v 0.061229349178414376 0.92 -0.12162674857624155
v 9.797174393178826e-18 0.92 -0.13
v -0.061229349178414355 0.92 -0.12162674857624155
v -0.11313708498984759 0.92 -0.09778174593052023
v -0.1478207252018059 0.92 -0.06209517756015989
v -0.16 0.92 -0.020000000000000014
v -0.1478207252018059 0.92 0.062095177560159864
v -0.11313708498984763 0.92 0.09778174593052022
v -0.06122934917841445 0.92 0.12162674857624152
v -2.9391523179536474e-17 0.92 0.13
v 0.061229349178414404 0.92 0.12162674857624153
v 0.11313708498984758 0.92 0.09778174593052025
v 0.14782072520180584 0.92 0.06209517756015995
v 0.12 1.04 -0.01
v 0.1108655439013544 1.04 -0.04444150891285808
v 0.08485281374238571 1.04 -0.07363961030678927
v 0.04592201188381078 1.04 -0.0931491579260158
v 7.347880794884118e-18 1.04 -0.09999999999999999
v -0.045922011883810766 1.04 -0.0931491579260158
v -0.0848528137423857 1.04 -0.07363961030678927
v -0.1108655439013544 1.04 -0.04444150891285809
v -0.12 1.04 -0.01000000000000001
v -0.11086554390135442 1.04 0.04444150891285807
v -0.08485281374238572 1.04 0.07363961030678927
v -0.045922011883810836 1.04 0.09314915792601577
v -2.2043642384652355e-17 1.04 0.09999999999999999
v 0.0459220118838108 1.04 0.09314915792601579
v 0.08485281374238568 1.04 0.07363961030678928
v 0.11086554390135438 1.04 0.044441508912858134
v 0.17 1.16 -0.03
v 0.15705952052691877 1.16 -0.07974884620746167
v 0.1202081528017131 1.16 -0.12192388155425117
v 0.06505618350206528 1.16 -0.15010433922646726
v 1.0409497792752502e-17 1.16 -0.16
v -0.06505618350206525 1.16 -0.15010433922646726
v -0.12020815280171308 1.16 -0.12192388155425118
v -0.15705952052691877 1.16 -0.07974884620746168
v -0.17 1.16 -0.030000000000000016
v -0.15705952052691877 1.16 0.062095177560159864
v -0.12020815280171311 1.16 0.09778174593052022
v -0.06505618350206537 1.16 0.12162674857624152
v -3.1228493378257505e-17 1.16 0.13
v 0.06505618350206531 1.16 0.12162674857624153
v 0.12020815280171306 1.16 0.09778174593052025
v 0.1570595205269187 1.16 0.06209517756015995
v 0.2 1.28 -0.02
v 0.18477590650225736 1.28 -0.06209517756015988
v 0.14142135623730953 1.28 -0.09778174593052022
v 0.07653668647301798 1.28 -0.12162674857624155
v 1.2246467991473533e-17 1.28 -0.13
v -0.07653668647301795 1.28 -0.12162674857624155
v -0.1414213562373095 1.28 -0.09778174593052023
v -0.18477590650225736 1.28 -0.06209517756015989
v -0.2 1.28 -0.020000000000000014
v -0.1847759065022574 1.28 0.05709517756015987
v -0.14142135623730953 1.28 0.09278174593052022
v -0.07653668647301808 1.28 0.11662674857624152
v -3.6739403974420595e-17 1.28 0.125
v 0.076536686473018 1.28 0.11662674857624153
v 0.14142135623730948 1.28 0.09278174593052024
v 0.1847759065022573 1.28 0.05709517756015994
v 0.06 1.36 -0.005
v 0.0554327719506772 1.36 -0.026047588780079938
v 0.042426406871192854 1.36 -0.043890872965260105
v 0.02296100594190539 1.36 -0.05581337428812077
v 3.673940397442059e-18 1.36 -0.06
v -0.022961005941905383 1.36 -0.05581337428812077
v -0.04242640687119285 1.36 -0.04389087296526011
v -0.0554327719506772 1.36 -0.026047588780079945
v -0.06 1.36 -0.005000000000000007
v -0.05543277195067721 1.36 0.027047588780079936
v -0.04242640687119286 1.36 0.044890872965260106
v -0.022961005941905418 1.36 0.056813374288120756
v -1.1021821192326178e-17 1.36 0.061
v 0.0229610059419054 1.36 0.05681337428812076
v 0.04242640687119284 1.36 0.04489087296526012
v 0.05543277195067719 1.36 0.02704758878007997
v 0.095 1.44 -0.01
v 0.08776855558857224 1.44 -0.048268343236508984
v 0.06717514421272203 1.44 -0.08071067811865475
v 0.03635492607468353 1.44 -0.10238795325112868
v 5.817072295949928e-18 1.44 -0.11
v -0.036354926074683526 1.44 -0.10238795325112868
v -0.06717514421272201 1.44 -0.08071067811865476
v -0.08776855558857224 1.44 -0.04826834323650899
v -0.095 1.44 -0.010000000000000012
v -0.08776855558857226 1.44 0.05709517756015987
v -0.06717514421272203 1.44 0.09278174593052022
v -0.03635492607468358 1.44 0.11662674857624152
v -1.745121688784978e-17 1.44 0.125
v 0.036354926074683554 1.44 0.11662674857624153
v 0.067175144212722 1.44 0.09278174593052024
v 0.08776855558857222 1.44 0.05709517756015994
v 0.09 1.52 -0.01
v 0.08314915792601581 1.52 -0.046354926074683535
v 0.06363961030678927 1.52 -0.07717514421272201
v 0.03444150891285808 1.52 -0.09776855558857224
v 5.5109105961630896e-18 1.52 -0.105
v -0.034441508912858076 1.52 -0.09776855558857224
v -0.06363961030678927 1.52 -0.07717514421272202
v -0.08314915792601581 1.52 -0.04635492607468354
v -0.09 1.52 -0.010000000000000012
v -0.08314915792601581 1.52 0.05326834323650897
v -0.06363961030678929 1.52 0.08571067811865475
v -0.03444150891285813 1.52 0.10738795325112865
v -1.6532731788489266e-17 1.52 0.115
v 0.0344415089128581 1.52 0.10738795325112867
v 0.06363961030678926 1.52 0.08571067811865477
v 0.08314915792601578 1.52 0.053268343236509044
v 0.05 1.6000000000000003 0
v 0.04619397662556434 1.6000000000000003 -0.022961005941905387
v 0.03535533905932738 1.6000000000000003 -0.04242640687119285
v 0.019134171618254495 1.6000000000000003 -0.0554327719506772
v 3.061616997868383e-18 1.6000000000000003 -0.06
v -0.019134171618254488 1.6000000000000003 -0.0554327719506772
v -0.035355339059327376 1.6000000000000003 -0.042426406871192854
v -0.04619397662556434 1.6000000000000003 -0.022961005941905394
v -0.05 1.6000000000000003 -7.347880794884118e-18
v -0.04619397662556435 1.6000000000000003 0.03896100594190538
v -0.03535533905932738 1.6000000000000003 0.05842640687119285
v -0.01913417161825452 1.6000000000000003 0.07143277195067718
v -9.184850993605149e-18 1.6000000000000003 0.076
v 0.0191341716182545 1.6000000000000003 0.0714327719506772
v 0.03535533905932737 1.6000000000000003 0.05842640687119286
v 0.04619397662556433 1.6000000000000003 0.03896100594190542
v 0 0.8 0
v -2.6020852139652106e-18 1.6000000000000005 0.006999999999999998
v 0.13337918494188006 1.08 0.012620375998021138
v 0.15957461817270205 1.08 -0.035861746176110446
v 0.21237962400197885 1.08 -0.05162081505811991
v 0.26086174617611047 1.08 -0.025425381827297932
v 0.2766208150581199 1.08 0.027379624001978856
v 0.2504253818272979 1.08 0.07586174617611044
v 0.19762037599802112 1.08 0.09162081505811992
v 0.14913825382388954 1.08 0.06542538182729794
v 0.17327385579135784 0.97 0.024670271554126374
v 0.19219277979139593 0.97 -0.010344594460524215
v 0.23032972844587363 0.97 -0.021726144208642162
v 0.2653445944605242 0.97 -0.0028072202086040637
v 0.27672614420864217 0.97 0.03532972844587362
v 0.2578072202086041 0.97 0.07034459446052421
v 0.21967027155412638 0.97 0.08172614420864216
v 0.1846554055394758 0.97 0.06280722020860408
v 0.17924225704620117 0.84 0.03528524022095795
v 0.19597822827700412 0.84 0.004310551054151658
v 0.22971475977904204 0.84 -0.005757742953798835
v 0.26068944894584833 0.84 0.0109782282770041
v 0.27075774295379884 0.84 0.044714759779042046
v 0.2540217717229959 0.84 0.07568944894584834
v 0.22028524022095797 0.84 0.08575774295379884
v 0.18931055105415168 0.84 0.06902177172299591
v 0.1852106583010445 0.75 0.04590020888778952
v 0.19976367676261225 0.75 0.018965696568827527
v 0.2290997911122105 0.75 0.010210658301044492
v 0.2560343034311725 0.75 0.02476367676261226
v 0.2647893416989555 0.75 0.05409979111221048
v 0.25023632323738776 0.75 0.08103430343117247
v 0.22090020888778952 0.75 0.08978934169895551
v 0.19396569656882753 0.75 0.07523632323738774
v 0.16730545453651452 0.68 0.06405530288729482
v 0.1884073313057878 0.68 0.025000260024799915
v 0.2309446971127052 0.68 0.012305454536514514
v 0.2699997399752001 0.68 0.03340733130578778
v 0.2826945454634855 0.68 0.0759446971127052
v 0.2615926686942122 0.68 0.11499973997520009
v 0.21905530288729483 0.68 0.1276945454634855
v 0.1800002600247999 0.68 0.10659266869421224
v 0.19117905955588782 0.64 0.08651517755462108
v 0.2035491252482204 0.64 0.0636208420835034
v 0.2284848224453789 0.64 0.05617905955588781
v 0.2513791579164966 0.64 0.06854912524822042
v 0.2588209404441122 0.64 0.0934848224453789
v 0.2464508747517796 0.64 0.1163791579164966
v 0.2215151775546211 0.64 0.12382094044411218
v 0.1986208420835034 0.64 0.11145087475177959
v 0.225 0.64 0.09000000000000001
v -0.15134499116501285 1.08 -0.0280118738117713
v -0.13311065785838017 1.08 0.023990299042067228
v -0.1569881261882287 1.08 0.07365500883498714
v -0.2089902990420672 1.08 0.09188934214161984
v -0.25865500883498715 1.08 0.0680118738117713
v -0.2768893421416198 1.08 0.016009700957932783
v -0.2530118738117713 1.08 -0.033655008834987135
v -0.20100970095793277 1.08 -0.05188934214161983
v -0.18624916028584262 0.97 -0.004675242197390385
v -0.17307991956438568 0.97 0.032881882641493
v -0.19032475780260963 0.97 0.06875083971415738
v -0.227881882641493 0.97 0.08192008043561433
v -0.26375083971415736 0.97 0.06467524219739038
v -0.27692008043561434 0.97 0.02711811735850701
v -0.2596752421973904 0.97 -0.008750839714157382
v -0.222118117358507 0.97 -0.021920080435614324
v -0.19072041102209156 0.84 0.00932574728692389
v -0.17907069807618733 0.84 0.04254935772132073
v -0.1943257472869239 0.84 0.07427958897790846
v -0.22754935772132073 0.84 0.08592930192381268
v -0.2592795889779085 0.84 0.07067425271307612
v -0.2709293019238127 0.84 0.03745064227867928
v -0.25567425271307614 0.84 0.0057204110220915455
v -0.22245064227867928 0.84 -0.00592930192381267
v -0.1951916617583405 0.75 0.023326736771238164
v -0.185061476587989 0.75 0.052216832801148465
v -0.19832673677123816 0.75 0.07980833824165953
v -0.22721683280114846 0.75 0.08993852341201103
v -0.25480833824165955 0.75 0.07667326322876183
v -0.264938523412011 0.75 0.04778316719885155
v -0.2516732632287618 0.75 0.020191661758340477
v -0.22278316719885155 0.75 0.010061476587988984
v -0.1817779095495937 0.68 0.03132376831829534
v -0.16708914105258402 0.68 0.07321440756166528
v -0.18632376831829534 0.68 0.11322209045040632
v -0.22821440756166528 0.68 0.127910858947416
v -0.26822209045040635 0.68 0.10867623168170468
v -0.28291085894741597 0.68 0.06678559243833475
v -0.2636762316817047 0.68 0.026777909549593693
v -0.22178559243833476 0.68 0.012089141052584025
v -0.1996629124945894 0.64 0.06732772625555243
v -0.19105225509979062 0.64 0.0918843078809762
v -0.20232772625555245 0.64 0.1153370875054106
v -0.2268843078809762 0.64 0.12394774490020936
v -0.2503370875054106 0.64 0.11267227374444756
v -0.2589477449002094 0.64 0.08811569211902381
v -0.24767227374444756 0.64 0.0646629124945894
v -0.22311569211902382 0.64 0.05605225509979063
v -0.22499999999999998 0.64 0.09000000000000001
v 0.14038559307151185 0.66 0.09492266954693176
v 0.069971997304074 0.66 0.0950707883302735
v 0.02007733045306824 0.66 0.04538559307151188
v 0.01992921166972647 0.66 -0.025028002695925984
v 0.06961440692848811 0.66 -0.07492266954693176
v 0.14002800269592597 0.66 -0.07507078833027353
v 0.18992266954693177 0.66 -0.02538559307151189
v 0.19007078833027352 0.66 0.04502800269592598
v 0.13192382081528076 0.48 0.07461507465527417
v 0.07834825881831717 0.48 0.07472777372955594
v 0.04038492534472583 0.48 0.03692382081528078
v 0.04027222627044405 0.48 -0.01665174118168282
v 0.07807617918471921 0.48 -0.05461507465527416
v 0.13165174118168282 0.48 -0.054727773729555944
v 0.16961507465527415 0.48 -0.016923820815280786
v 0.16972777372955594 0.48 0.03665174118168281
v 0.12653905665222462 0.3 0.05669205972421933
v 0.08367860705465373 0.3 0.056782218983644744
v 0.05330794027578067 0.3 0.026539056652224623
v 0.05321778101635524 0.3 -0.016321392945346253
v 0.08346094334777537 0.3 -0.04669205972421933
v 0.12632139294534625 0.3 -0.046782218983644756
v 0.15669205972421932 0.3 -0.01653905665222463
v 0.15678221898364475 0.3 0.026321392945346248
v 0.12269279653575593 0.13 0.042461334773465885
v 0.08748599865203699 0.13 0.042535394165136756
v 0.06253866522653412 0.13 0.01769279653575594
v 0.062464605834863234 0.13 -0.017514001347962993
v 0.08730720346424406 0.13 -0.04246133477346588
v 0.12251400134796299 0.13 -0.04253539416513676
v 0.14746133477346587 0.13 -0.017692796535755947
v 0.14753539416513675 0.13 0.01751400134796299
v 0.12730830867551834 0.05 0.07353820471437003
v 0.08291712873517708 0.05 0.07363158394734634
v 0.051461795285629976 0.05 0.042308308675518366
v 0.051368416052653645 0.05 -0.0020828712648229067
v 0.08269169132448163 0.05 -0.033538204714370023
v 0.1270828712648229 0.05 -0.03363158394734635
v 0.15853820471437002 0.05 -0.0023083086755183654
v 0.15863158394734633 0.05 0.0420828712648229
v 0.1242313005823434 0.012 0.16615362475376727
v 0.08596304201308369 0.012 0.16623412409253996
v 0.058846375246232735 0.012 0.1392313005823434
v 0.05876587590746003 0.012 0.1009630420130837
v 0.08576869941765658 0.012 0.07384637524623273
v 0.12403695798691629 0.012 0.07376587590746003
v 0.15115362475376726 0.012 0.10076869941765658
v 0.15123412409253995 0.012 0.1390369579869163
v 0.11807728439599352 0 0.23138446483256175
v 0.09205486856889691 0 0.23143920438292717
v 0.07361553516743827 0 0.21307728439599352
v 0.07356079561707282 0 0.18705486856889691
v 0.09192271560400647 0 0.16861553516743827
v 0.11794513143110308 0 0.16856079561707282
v 0.13638446483256172 0 0.18692271560400647
v 0.13643920438292717 0 0.21294513143110308
v 0.10499999999999998 0 0.2
v -0.0560794250904727 0.66 -0.06791519332274885
v -0.015313568185952253 0.66 -0.010502291297905307
v -0.027084806677251147 0.66 0.05892057490952729
v -0.08449770870209469 0.66 0.09968643181404774
v -0.1539205749095273 0.66 0.08791519332274886
v -0.19468643181404774 0.66 0.03050229129790532
v -0.18291519332274886 0.66 -0.03892057490952727
v -0.12550229129790533 0.66 -0.07968643181404775
v -0.06777782343840313 0.48 -0.049283299267308914
v -0.036760323619746266 0.48 -0.005599569465797517
v -0.04571670073269108 0.48 0.04722217656159686
v -0.08940043053420248 0.48 0.07823967638025373
v -0.14222217656159686 0.48 0.06928329926730893
v -0.17323967638025373 0.48 0.025599569465797528
v -0.16428329926730892 0.48 -0.027222176561596846
v -0.12059956946579753 0.48 -0.05823967638025373
v -0.07522225875072251 0.3 -0.04242663941384713
v -0.05040825889579702 0.3 -0.0074796555726380125
v -0.057573360586152866 0.3 0.03477774124927748
v -0.09252034442736198 0.3 0.059591741104202976
v -0.13477774124927747 0.3 0.052426639413847134
v -0.159591741104203 0.3 0.01747965557263802
v -0.15242663941384713 0.3 -0.024777741249277473
v -0.11747965557263802 0.3 -0.04959174110420298
v -0.08053971254523634 0.13 -0.038957596661374425
v -0.060156784092976125 0.13 -0.010251145648952653
v -0.06604240333862557 0.13 0.024460287454763644
v -0.09474885435104734 0.13 0.04484321590702387
v -0.12946028745476365 0.13 0.03895759666137443
v -0.14984321590702387 0.13 0.010251145648952659
v -0.14395759666137442 0.13 -0.024460287454763637
v -0.11525114564895265 0.13 -0.04484321590702387
v -0.07415876799181974 0.05 -0.029120447964341673
v -0.04845855385636119 0.05 0.007074642442624915
v -0.05587955203565832 0.05 0.05084123200818025
v -0.09207464244262491 0.05 0.07654144614363881
v -0.13584123200818024 0.05 0.06912044796434168
v -0.1615414461436388 0.05 0.03292535755737509
v -0.15412044796434168 0.05 -0.01084123200818024
v -0.1179253575573751 0.05 -0.0365414461436388
v -0.07841273102743081 0.012 0.07765478623763648
v -0.05625737401410448 0.012 0.1088574503815732
v -0.06265478623763648 0.012 0.14658726897256918
v -0.0938574503815732 0.012 0.1687426259858955
v -0.13158726897256917 0.012 0.16234521376236352
v -0.1537426259858955 0.012 0.1311425496184268
v -0.1473452137623635 0.012 0.09341273102743082
v -0.11614254961842681 0.012 0.07125737401410448
v -0.08692065709865295 0 0.1712052546415928
v -0.07185501432959104 0 0.19242306625946978
v -0.0762052546415928 0 0.21807934290134706
v -0.09742306625946977 0 0.23314498567040898
v -0.12307934290134703 0 0.22879474535840721
v -0.13814498567040895 0 0.20757693374053024
v -0.13379474535840719 0 0.18192065709865296
v -0.11257693374053022 0 0.16685501432959104
v -0.105 0 0.2
f 3 4 20
f 3 20 19
f 4 5 21
f 4 21 20
f 5 6 22
f 5 22 21
f 6 7 23
f 6 23 22
f 10 11 27
f 10 27 26
f 11 12 28
f 11 28 27
f 12 13 29
f 12 29 28
f 13 14 30
f 13 30 29
f 14 15 31
f 14 31 30
f 15 16 32
f 15 32 31
f 17 18 34
f 17 34 33
f 18 19 35
f 18 35 34
f 19 20 36
f 19 36 35
f 20 21 37
f 20 37 36
f 21 22 38
f 21 38 37
f 22 23 39
f 22 39 38
f 23 24 40
f 23 40 39
f 24 25 41
f 24 41 40
f 25 26 42
f 25 42 41
f 26 27 43
f 26 43 42
f 27 28 44
f 27 44 43
f 28 29 45
f 28 45 44
f 29 30 46
f 29 46 45
f 30 31 47
f 30 47 46
f 31 32 48
f 31 48 47
f 32 17 33
f 32 33 48
f 34 35 51
f 34 51 50
f 35 36 52
f 35 52 51
f 36 37 53
f 36 53 52
f 37 38 54
f 37 54 53
f 38 39 55
f 38 55 54
f 39 40 56
f 39 56 55
f 42 43 59
f 42 59 58
f 43 44 60
f 43 60 59
f 44 45 61
f 44 61 60
f 45 46 62
f 45 62 61
f 46 47 63
f 46 63 62
f 47 48 64
f 47 64 63
f 50 51 67
f 50 67 66
f 51 52 68
f 51 68 67
f 52 53 69
f 52 69 68
f 53 54 70
f 53 70 69
f 54 55 71
f 54 71 70
f 55 56 72
f 55 72 71
f 58 59 75
f 58 75 74
f 59 60 76
f 59 76 75
f 60 61 77
f 60 77 76
f 61 62 78
f 61 78 77
f 62 63 79
f 62 79 78
f 63 64 80
f 63 80 79
f 65 66 82
f 65 82 81
f 66 67 83
f 66 83 82
f 67 68 84
f 67 84 83
f 68 69 85
f 68 85 84
f 69 70 86
f 69 86 85
f 70 71 87
f 70 87 86
f 71 72 88
f 71 88 87
f 72 73 89
f 72 89 88
f 73 74 90
f 73 90 89
f 74 75 91
f 74 91 90
f 75 76 92
f 75 92 91
f 76 77 93
f 76 93 92
f 77 78 94
f 77 94 93
f 78 79 95
f 78 95 94
f 79 80 96
f 79 96 95
f 80 65 81
f 80 81 96
f 81 82 98
f 81 98 97
f 82 83 99
f 82 99 98
f 83 84 100
f 83 100 99
f 84 85 101
f 84 101 100
f 85 86 102
f 85 102 101
f 86 87 103
f 86 103 102
f 87 88 104
f 87 104 103
f 88 89 105
f 88 105 104
f 89 90 106
f 89 106 105
f 90 91 107
f 90 107 106
f 91 92 108
f 91 108 107
f 92 93 109
f 92 109 108
f 93 94 110
f 93 110 109
f 94 95 111
f 94 111 110
f 95 96 112
f 95 112 111
f 96 81 97
f 96 97 112
f 97 98 114
f 97 114 113
f 98 99 115
f 98 115 114
f 99 100 116
f 99 116 115
f 100 101 117
f 100 117 116
f 101 102 118
f 101 118 117
f 102 103 119
f 102 119 118
f 103 104 120
f 103 120 119
f 104 105 121
f 104 121 120
f 105 106 122
f 105 122 121
f 106 107 123
f 106 123 122
f 107 108 124
f 107 124 123
f 108 109 125
f 108 125 124
f 109 110 126
f 109 126 125
f 110 111 127
f 110 127 126
f 111 112 128
f 111 128 127
f 112 97 113
f 112 113 128
f 113 114 130
f 113 130 129
f 114 115 131
f 114 131 130
f 115 116 132
f 115 132 131
f 116 117 133
f 116 133 132
f 117 118 134
f 117 134 133
f 118 119 135
f 118 135 134
f 119 120 136
f 119 136 135
f 120 121 137
f 120 137 136
f 121 122 138
f 121 138 137
f 122 123 139
f 122 139 138
f 123 124 140
f 123 140 139
f 124 125 141
f 124 141 140
f 125 126 142
f 125 142 141
f 126 127 143
f 126 143 142
f 127 128 144
f 127 144 143
f 128 113 129
f 128 129 144
f 145 2 1
f 145 3 2
f 145 4 3
f 145 5 4
f 145 6 5
f 145 7 6
f 145 8 7
f 145 9 8
f 145 10 9
f 145 11 10
f 145 12 11
f 145 13 12
f 145 14 13
f 145 15 14
f 145 16 15
f 145 1 16
f 146 129 130
f 146 130 131
f 146 131 132
f 146 132 133
f 146 133 134
f 146 134 135
f 146 135 136
f 146 136 137
f 146 137 138
f 146 138 139
f 146 139 140
f 146 140 141
f 146 141 142
f 146 142 143
f 146 143 144
f 146 144 129
f 33 34 148
f 33 148 147
f 34 50 149
f 34 149 148
f 50 66 150
f 50 150 149
f 66 65 151
f 66 151 150
f 65 80 152
f 65 152 151
f 80 64 153
f 80 153 152
f 64 48 154
f 64 154 153
f 48 33 147
f 48 147 154
f 147 148 156
f 147 156 155
f 148 149 157
f 148 157 156
f 149 150 158
f 149 158 157
f 150 151 159
f 150 159 158
f 151 152 160
f 151 160 159
f 152 153 161
f 152 161 160
f 153 154 162
f 153 162 161
f 154 147 155
f 154 155 162
f 155 156 164
f 155 164 163
f 156 157 165
f 156 165 164
f 157 158 166
f 157 166 165
f 158 159 167
f 158 167 166
f 159 160 168
f 159 168 167
f 160 161 169
f 160 169 168
f 161 162 170
f 161 170 169
f 162 155 163
f 162 163 170
f 163 164 172
f 163 172 171
f 164 165 173
f 164 173 172
f 165 166 174
f 165 174 173
f 166 167 175
f 166 175 174
f 167 168 176
f 167 176 175
f 168 169 177
f 168 177 176
f 169 170 178
f 169 178 177
f 170 163 171
f 170 171 178
f 171 172 180
f 171 180 179
f 172 173 181
f 172 181 180
f 173 174 182
f 173 182 181
f 174 175 183
f 174 183 182
f 175 176 184
f 175 184 183
f 176 177 185
f 176 185 184
f 177 178 186
f 177 186 185
f 178 171 179
f 178 179 186
f 179 180 188
f 179 188 187
f 180 181 189
f 180 189 188
f 181 182 190
f 181 190 189
f 182 183 191
f 182 191 190
f 183 184 192
f 183 192 191
f 184 185 193
f 184 193 192
f 185 186 194
f 185 194 193
f 186 179 187
f 186 187 194
f 195 187 188
f 195 188 189
f 195 189 190
f 195 190 191
f 195 191 192
f 195 192 193
f 195 193 194
f 195 194 187
f 40 41 197
f 40 197 196
f 41 42 198
f 41 198 197
f 42 58 199
f 42 199 198
f 58 74 200
f 58 200 199
f 74 73 201
f 74 201 200
f 73 72 202
f 73 202 201
f 72 56 203
f 72 203 202
f 56 40 196
f 56 196 203
f 196 197 205
f 196 205 204
f 197 198 206
f 197 206 205
f 198 199 207
f 198 207 206
f 199 200 208
f 199 208 207
f 200 201 209
f 200 209 208
f 201 202 210
f 201 210 209
f 202 203 211
f 202 211 210
f 203 196 204
f 203 204 211
f 204 205 213
f 204 213 212
f 205 206 214
f 205 214 213
f 206 207 215
f 206 215 214
f 207 208 216
f 207 216 215
f 208 209 217
f 208 217 216
f 209 210 218
f 209 218 217
f 210 211 219
f 210 219 218
f 211 204 212
f 211 212 219
f 212 213 221
f 212 221 220
f 213 214 222
f 213 222 221
f 214 215 223
f 214 223 222
f 215 216 224
f 215 224 223
f 216 217 225
f 216 225 224
f 217 218 226
f 217 226 225
f 218 219 227
f 218 227 226
f 219 212 220
f 219 220 227
f 220 221 229
f 220 229 228
f 221 222 230
f 221 230 229
f 222 223 231
f 222 231 230
f 223 224 232
f 223 232 231
f 224 225 233
f 224 233 232
f 225 226 234
f 225 234 233
f 226 227 235
f 226 235 234
f 227 220 228
f 227 228 235
f 228 229 237
f 228 237 236
f 229 230 238
f 229 238 237
f 230 231 239
f 230 239 238
f 231 232 240
f 231 240 239
f 232 233 241
f 232 241 240
f 233 234 242
f 233 242 241
f 234 235 243
f 234 243 242
f 235 228 236
f 235 236 243
f 244 236 237
f 244 237 238
f 244 238 239
f 244 239 240
f 244 240 241
f 244 241 242
f 244 242 243
f 244 243 236
f 1 2 246
f 1 246 245
f 2 3 247
f 2 247 246
f 3 19 248
f 3 248 247
f 19 18 249
f 19 249 248
f 18 17 250
f 18 250 249
f 17 32 251
f 17 251 250
f 32 16 252
f 32 252 251
f 16 1 245
f 16 245 252
f 245 246 254
f 245 254 253
f 246 247 255
f 246 255 254
f 247 248 256
f 247 256 255
f 248 249 257
f 248 257 256
f 249 250 258
f 249 258 257
f 250 251 259
f 250 259 258
f 251 252 260
f 251 260 259
f 252 245 253
f 252 253 260
f 253 254 262
f 253 262 261
f 254 255 263
f 254 263 262
f 255 256 264
f 255 264 263
f 256 257 265
f 256 265 264
f 257 258 266
f 257 266 265
f 258 259 267
f 258 267 266
f 259 260 268
f 259 268 267
f 260 253 261
f 260 261 268
f 261 262 270
f 261 270 269
f 262 263 271
f 262 271 270
f 263 264 272
f 263 272 271
f 264 265 273
f 264 273 272
f 265 266 274
f 265 274 273
f 266 267 275
f 266 275 274
f 267 268 276
f 267 276 275
f 268 261 269
f 268 269 276
f 269 270 278
f 269 278 277
f 270 271 279
f 270 279 278
f 271 272 280
f 271 280 279
f 272 273 281
f 272 281 280
f 273 274 282
f 273 282 281
f 274 275 283
f 274 283 282
f 275 276 284
f 275 284 283
f 276 269 277
f 276 277 284
f 277 278 286
f 277 286 285
f 278 279 287
f 278 287 286
f 279 280 288
f 279 288 287
f 280 281 289
f 280 289 288
f 281 282 290
f 281 290 289
f 282 283 291
f 282 291 290
f 283 284 292
f 283 292 291
f 284 277 285
f 284 285 292
f 285 286 294
f 285 294 293
f 286 287 295
f 286 295 294
f 287 288 296
f 287 296 295
f 288 289 297
f 288 297 296
f 289 290 298
f 289 298 297
f 290 291 299
f 290 299 298
f 291 292 300
f 291 300 299
f 292 285 293
f 292 293 300
f 301 293 294
f 301 294 295
f 301 295 296
f 301 296 297
f 301 297 298
f 301 298 299
f 301 299 300
f 301 300 293
f 7 8 303
f 7 303 302
f 8 9 304
f 8 304 303
f 9 10 305
f 9 305 304
f 10 26 306
f 10 306 305
f 26 25 307
f 26 307 306
f 25 24 308
f 25 308 307
f 24 23 309
f 24 309 308
f 23 7 302
f 23 302 309
f 302 303 311
f 302 311 310
f 303 304 312
f 303 312 311
f 304 305 313
f 304 313 312
f 305 306 314
f 305 314 313
f 306 307 315
f 306 315 314
f 307 308 316
f 307 316 315
f 308 309 317
f 308 317 316
f 309 302 310
f 309 310 317
f 310 311 319
f 310 319 318
f 311 312 320
f 311 320 319
f 312 313 321
f 312 321 320
f 313 314 322
f 313 322 321
f 314 315 323
f 314 323 322
f 315 316 324
f 315 324 323
f 316 317 325
f 316 325 324
f 317 310 318
f 317 318 325
f 318 319 327
f 318 327 326
f 319 320 328
f 319 328 327
f 320 321 329
f 320 329 328
f 321 322 330
f 321 330 329
f 322 323 331
f 322 331 330
f 323 324 332
f 323 332 331
f 324 325 333
f 324 333 332
f 325 318 326
f 325 326 333
f 326 327 335
f 326 335 334
f 327 328 336
f 327 336 335
f 328 329 337
f 328 337 336
f 329 330 338
f 329 338 337
f 330 331 339
f 330 339 338
f 331 332 340
f 331 340 339
f 332 333 341
f 332 341 340
f 333 326 334
f 333 334 341
f 334 335 343
f 334 343 342
f 335 336 344
f 335 344 343
f 336 337 345
f 336 345 344
f 337 338 346
f 337 346 345
f 338 339 347
f 338 347 346
f 339 340 348
f 339 348 347
f 340 341 349
f 340 349 348
f 341 334 342
f 341 342 349
f 342 343 351
f 342 351 350
f 343 344 352
f 343 352 351
f 344 345 353
f 344 353 352
f 345 346 354
f 345 354 353
f 346 347 355
f 346 355 354
f 347 348 356
f 347 356 355
f 348 349 357
f 348 357 356
f 349 342 350
f 349 350 357
f 358 350 351
f 358 351 352
f 358 352 353
f 358 353 354
f 358 354 355
f 358 355 356
f 358 356 357
f 358 357 350
